<?xml version="1.0" encoding="UTF-8" standalone="no"?>
<!-- Created with Inkscape (http://www.inkscape.org/) -->

<svg
   xmlns:dc="http://purl.org/dc/elements/1.1/"
   xmlns:cc="http://creativecommons.org/ns#"
   xmlns:rdf="http://www.w3.org/1999/02/22-rdf-syntax-ns#"
   xmlns:svg="http://www.w3.org/2000/svg"
   xmlns="http://www.w3.org/2000/svg"
   xmlns:xlink="http://www.w3.org/1999/xlink"
   xmlns:sodipodi="http://sodipodi.sourceforge.net/DTD/sodipodi-0.dtd"
   xmlns:inkscape="http://www.inkscape.org/namespaces/inkscape"
   id="svg4081"
   version="1.1"
   inkscape:version="0.48.3.1 r9886"
   width="48"
   height="48"
   sodipodi:docname="índice.jpeg">
  <metadata
     id="metadata4087">
    <rdf:RDF>
      <cc:Work
         rdf:about="">
        <dc:format>image/svg+xml</dc:format>
        <dc:type
           rdf:resource="http://purl.org/dc/dcmitype/StillImage" />
        <dc:title></dc:title>
      </cc:Work>
    </rdf:RDF>
  </metadata>
  <defs
     id="defs4085">
    <linearGradient
       inkscape:collect="always"
       id="linearGradient4670">
      <stop
         style="stop-color:#00acee;stop-opacity:1;"
         offset="0"
         id="stop4672" />
      <stop
         style="stop-color:#00acee;stop-opacity:0;"
         offset="1"
         id="stop4674" />
    </linearGradient>
    <filter
       inkscape:collect="always"
       id="filter4666"
       x="-0.11031328"
       width="1.2206266"
       y="-0.13155169"
       height="1.2631034">
      <feGaussianBlur
         inkscape:collect="always"
         stdDeviation="1.6087353"
         id="feGaussianBlur4668" />
    </filter>
    <radialGradient
       inkscape:collect="always"
       xlink:href="#linearGradient4670"
       id="radialGradient4680"
       cx="24"
       cy="23.921682"
       fx="24"
       fy="23.921682"
       r="17.5"
       gradientTransform="matrix(9.5462147,0.09367059,-0.03930762,4.0059563,-204.16885,-74.155626)"
       gradientUnits="userSpaceOnUse" />
  </defs>
  <sodipodi:namedview
     pagecolor="#ffffff"
     bordercolor="#666666"
     borderopacity="1"
     objecttolerance="10"
     gridtolerance="10"
     guidetolerance="10"
     inkscape:pageopacity="0"
     inkscape:pageshadow="2"
     inkscape:window-width="1280"
     inkscape:window-height="1000"
     id="namedview4083"
     showgrid="false"
     inkscape:zoom="8.3911111"
     inkscape:cx="15.600778"
     inkscape:cy="31.461864"
     inkscape:window-x="0"
     inkscape:window-y="24"
     inkscape:window-maximized="1"
     inkscape:current-layer="svg4081" />
  <path
     inkscape:connector-curvature="0"
     id="path4152"
     d="M 14.292683,38.531848 C 12.428887,38.230509 10.180648,37.534161 8.3628761,36.695223 6.8792533,36.010483 6.4380247,35.684668 6.5068008,35.324599 c 0.074316,-0.389071 0.4642645,-0.500406 2.2118655,-0.631528 1.1669047,-0.08762 2.4204067,-0.249293 2.7855597,-0.359427 1.26896,-0.382701 3.717941,-1.547011 3.717941,-1.767593 0,-0.122057 -0.594779,-0.477785 -1.32174,-0.790522 -2.631206,-1.131911 -5.17603,-5.023071 -3.285099,-5.023071 0.316381,0 0.06808,-0.385467 -0.8125869,-1.261447 -1.5554186,-1.54714 -2.2619843,-2.872742 -2.4707464,-4.635388 l -0.1593982,-1.345879 0.8379801,0.12299 c 0.4608894,0.06766 0.8379794,0.03524 0.8379794,-0.0721 0,-0.107333 -0.3053284,-0.783568 -0.6785089,-1.502853 -0.9179644,-1.769343 -1.1114853,-3.854772 -0.5223139,-5.628595 0.2526623,-0.760702 0.6356953,-1.45075 0.8511844,-1.533432 0.2410637,-0.09252 0.9200835,0.357315 1.7649464,1.169199 2.919802,2.805821 5.870904,4.505351 9.382909,5.403568 2.945985,0.753457 3.27684,0.716998 3.27684,-0.361083 0,-2.55738 1.71248,-5.625714 3.807615,-6.822294 2.510889,-1.4340314 5.476065,-1.379828 8.010672,0.14644 0.838437,0.504875 1.638945,0.917957 1.77891,0.917957 0.139977,0 1.03299,-0.311453 1.9845,-0.692113 2.265912,-0.9065004 2.64894,-0.621694 1.62911,1.211338 l -0.714968,1.285095 1.046932,-0.140432 c 1.514263,-0.203105 1.382021,0.420164 -0.511129,2.408992 l -1.55806,1.63681 -0.147268,2.124535 c -0.403818,5.825447 -3.336959,11.469313 -7.81515,15.037715 -3.635544,2.89695 -7.273385,4.196477 -12.158592,4.343348 -1.752742,0.05274 -3.545313,0.0378 -3.983502,-0.03301 z"
     style="fill:#000000;fill-opacity:1;filter:url(#filter4666)" />
  <path
     style="fill:url(#radialGradient4680);fill-opacity:1"
     d="M 14.292683,38.531848 C 12.428887,38.230509 10.180648,37.534161 8.3628761,36.695223 6.8792533,36.010483 6.4380247,35.684668 6.5068008,35.324599 c 0.074316,-0.389071 0.4642645,-0.500406 2.2118655,-0.631528 1.1669047,-0.08762 2.4204067,-0.249293 2.7855597,-0.359427 1.26896,-0.382701 3.717941,-1.547011 3.717941,-1.767593 0,-0.122057 -0.594779,-0.477785 -1.32174,-0.790522 -2.631206,-1.131911 -5.17603,-5.023071 -3.285099,-5.023071 0.316381,0 0.06808,-0.385467 -0.8125869,-1.261447 -1.5554186,-1.54714 -2.2619843,-2.872742 -2.4707464,-4.635388 l -0.1593982,-1.345879 0.8379801,0.12299 c 0.4608894,0.06766 0.8379794,0.03524 0.8379794,-0.0721 0,-0.107333 -0.3053284,-0.783568 -0.6785089,-1.502853 -0.9179644,-1.769343 -1.1114853,-3.854772 -0.5223139,-5.628595 0.2526623,-0.760702 0.6356953,-1.45075 0.8511844,-1.533432 0.2410637,-0.09252 0.9200835,0.357315 1.7649464,1.169199 2.919802,2.805821 5.870904,4.505351 9.382909,5.403568 2.945985,0.753457 3.27684,0.716998 3.27684,-0.361083 0,-2.55738 1.71248,-5.625714 3.807615,-6.822294 2.510889,-1.4340314 5.476065,-1.379828 8.010672,0.14644 0.838437,0.504875 1.638945,0.917957 1.77891,0.917957 0.139977,0 1.03299,-0.311453 1.9845,-0.692113 2.265912,-0.9065004 2.64894,-0.621694 1.62911,1.211338 l -0.714968,1.285095 1.046932,-0.140432 c 1.514263,-0.203105 1.382021,0.420164 -0.511129,2.408992 l -1.55806,1.63681 -0.147268,2.124535 c -0.403818,5.825447 -3.336959,11.469313 -7.81515,15.037715 -3.635544,2.89695 -7.273385,4.196477 -12.158592,4.343348 -1.752742,0.05274 -3.545313,0.0378 -3.983502,-0.03301 z"
     id="path4091"
     inkscape:connector-curvature="0" />
</svg>
