<?xml version="1.0" encoding="UTF-8" standalone="no"?>
<!-- Generator: Adobe Illustrator 19.0.0, SVG Export Plug-In . SVG Version: 6.00 Build 0)  -->

<svg
   xmlns:dc="http://purl.org/dc/elements/1.1/"
   xmlns:cc="http://creativecommons.org/ns#"
   xmlns:rdf="http://www.w3.org/1999/02/22-rdf-syntax-ns#"
   xmlns:svg="http://www.w3.org/2000/svg"
   xmlns="http://www.w3.org/2000/svg"
   xmlns:sodipodi="http://sodipodi.sourceforge.net/DTD/sodipodi-0.dtd"
   xmlns:inkscape="http://www.inkscape.org/namespaces/inkscape"
   version="1.1"
   id="Layer_1"
   x="0px"
   y="0px"
   viewBox="0 0 18.663563 18.663563"
   xml:space="preserve"
   width="24"
   height="24"
   inkscape:version="0.91 r13725"
   sodipodi:docname="bug.svg"><metadata
     id="metadata79"><rdf:RDF><cc:Work
         rdf:about=""><dc:format>image/svg+xml</dc:format><dc:type
           rdf:resource="http://purl.org/dc/dcmitype/StillImage" /><dc:title></dc:title></cc:Work></rdf:RDF></metadata><defs
     id="defs77" /><sodipodi:namedview
     pagecolor="#ffffff"
     bordercolor="#666666"
     borderopacity="1"
     objecttolerance="10"
     gridtolerance="10"
     guidetolerance="10"
     inkscape:pageopacity="0"
     inkscape:pageshadow="2"
     inkscape:window-width="1871"
     inkscape:window-height="875"
     id="namedview75"
     showgrid="false"
     inkscape:zoom="11.813324"
     inkscape:cx="9.2691947"
     inkscape:cy="11.6394"
     inkscape:window-x="0"
     inkscape:window-y="0"
     inkscape:window-maximized="0"
     inkscape:current-layer="Layer_1" /><g
     id="g3"
     transform="matrix(0.0429686,0,0,0.0429686,0.7776568,0.77766418)"><g
       id="g5"><path
         style="fill:#333e48"
         d="m 318.541,186.354 c -4.143,0 -7.5,-3.358 -7.5,-7.5 0,-4.142 3.357,-7.5 7.5,-7.5 18.034,0 32.706,-14.672 32.706,-32.707 0,-4.142 3.358,-7.5 7.5,-7.5 4.143,0 7.5,3.358 7.5,7.5 0,26.306 -21.4,47.707 -47.706,47.707 z"
         id="path7"
         inkscape:connector-curvature="0" /><path
         style="fill:#333e48"
         d="m 370.811,293.238 c -4.143,0 -7.5,-3.358 -7.5,-7.5 0,-18.034 -14.672,-32.706 -32.707,-32.706 -4.143,0 -7.5,-3.358 -7.5,-7.5 0,-4.142 3.357,-7.5 7.5,-7.5 26.306,0 47.707,21.401 47.707,47.706 0,4.142 -3.358,7.5 -7.5,7.5 z"
         id="path9"
         inkscape:connector-curvature="0" /><path
         style="fill:#333e48"
         d="m 337.645,380.993 c -4.143,0 -7.5,-3.358 -7.5,-7.5 0,-18.034 -14.672,-32.706 -32.707,-32.706 -4.143,0 -7.5,-3.358 -7.5,-7.5 0,-4.142 3.357,-7.5 7.5,-7.5 26.306,0 47.707,21.401 47.707,47.706 0,4.142 -3.358,7.5 -7.5,7.5 z"
         id="path11"
         inkscape:connector-curvature="0" /><path
         style="opacity:0.3;fill:#222222"
         d="m 318.541,186.354 c 12.137,0 23.223,-4.563 31.65,-12.053 -2.201,-4.763 -4.619,-9.405 -7.244,-13.912 -5.994,6.722 -14.713,10.965 -24.406,10.965 -4.143,0 -7.5,3.358 -7.5,7.5 0,4.142 3.357,7.5 7.5,7.5 z"
         id="path13"
         inkscape:connector-curvature="0" /><path
         style="opacity:0.3;fill:#222222"
         d="m 297.438,325.787 c -4.143,0 -7.5,3.358 -7.5,7.5 0,4.142 3.357,7.5 7.5,7.5 10.806,0 20.4,5.27 26.358,13.372 3.384,-3.829 6.593,-7.814 9.617,-11.944 -8.753,-10.054 -21.63,-16.428 -35.975,-16.428 z"
         id="path15"
         inkscape:connector-curvature="0" /><path
         style="opacity:0.3;fill:#222222"
         d="m 330.604,238.032 c -4.143,0 -7.5,3.358 -7.5,7.5 0,4.142 3.357,7.5 7.5,7.5 15.072,0 27.789,10.25 31.563,24.144 1.593,-7.88 2.629,-15.96 3.065,-24.201 -8.702,-9.191 -21.002,-14.943 -34.628,-14.943 z"
         id="path17"
         inkscape:connector-curvature="0" /></g><path
       style="fill:#333e48"
       d="m 232.216,47.724 c -0.464,0 -0.935,-0.043 -1.406,-0.133 -4.069,-0.772 -6.743,-4.697 -5.971,-8.766 4.901,-25.846 29.921,-42.882 55.758,-37.985 4.069,0.771 6.743,4.696 5.972,8.766 -0.772,4.07 -4.696,6.743 -8.767,5.972 -17.723,-3.36 -34.865,8.324 -38.227,26.042 -0.681,3.597 -3.828,6.104 -7.359,6.104 z"
       id="path19"
       inkscape:connector-curvature="0" /><g
       id="g21"><path
         style="fill:#333e48"
         d="m 79.615,186.354 c -26.306,0 -47.706,-21.401 -47.706,-47.707 0,-4.142 3.357,-7.5 7.5,-7.5 4.142,0 7.5,3.358 7.5,7.5 0,18.035 14.672,32.707 32.706,32.707 4.143,0 7.5,3.358 7.5,7.5 0,4.142 -3.357,7.5 -7.5,7.5 z"
         id="path23"
         inkscape:connector-curvature="0" /><path
         style="fill:#333e48"
         d="m 27.346,293.238 c -4.143,0 -7.5,-3.358 -7.5,-7.5 0,-26.305 21.401,-47.706 47.707,-47.706 4.143,0 7.5,3.358 7.5,7.5 0,4.142 -3.357,7.5 -7.5,7.5 -18.035,0 -32.707,14.672 -32.707,32.706 0,4.142 -3.358,7.5 -7.5,7.5 z"
         id="path25"
         inkscape:connector-curvature="0" /><path
         style="fill:#333e48"
         d="m 60.512,380.993 c -4.143,0 -7.5,-3.358 -7.5,-7.5 0,-26.305 21.401,-47.706 47.707,-47.706 4.143,0 7.5,3.358 7.5,7.5 0,4.142 -3.357,7.5 -7.5,7.5 -18.035,0 -32.707,14.672 -32.707,32.706 0,4.142 -3.358,7.5 -7.5,7.5 z"
         id="path27"
         inkscape:connector-curvature="0" /><path
         style="opacity:0.3;fill:#222222"
         d="m 87.115,178.854 c 0,-4.142 -3.357,-7.5 -7.5,-7.5 -9.693,0 -18.411,-4.243 -24.405,-10.964 -2.626,4.506 -5.043,9.148 -7.245,13.912 8.429,7.49 19.514,12.053 31.65,12.053 4.143,-10e-4 7.5,-3.359 7.5,-7.501 z"
         id="path29"
         inkscape:connector-curvature="0" /><path
         style="opacity:0.3;fill:#222222"
         d="m 75.053,245.532 c 0,-4.142 -3.357,-7.5 -7.5,-7.5 -13.626,0 -25.926,5.751 -34.627,14.942 0.437,8.24 1.473,16.321 3.065,24.2 3.774,-13.893 16.49,-24.142 31.561,-24.142 4.143,0 7.501,-3.358 7.501,-7.5 z"
         id="path31"
         inkscape:connector-curvature="0" /><path
         style="opacity:0.3;fill:#222222"
         d="m 100.719,325.787 c -14.346,0 -27.223,6.373 -35.976,16.427 3.025,4.13 6.233,8.115 9.617,11.944 5.959,-8.101 15.553,-13.371 26.358,-13.371 4.143,0 7.5,-3.358 7.5,-7.5 10e-4,-4.142 -3.357,-7.5 -7.499,-7.5 z"
         id="path33"
         inkscape:connector-curvature="0" /></g><path
       style="fill:#333e48"
       d="m 165.94,47.724 c -3.532,0 -6.678,-2.506 -7.359,-6.104 -3.361,-17.718 -20.507,-29.4 -38.226,-26.042 -4.069,0.772 -7.994,-1.901 -8.767,-5.972 -0.771,-4.069 1.902,-7.994 5.972,-8.766 25.842,-4.901 50.857,12.139 55.758,37.984 0.772,4.069 -1.901,7.994 -5.971,8.766 -0.472,0.09 -0.943,0.134 -1.407,0.134 z"
       id="path35"
       inkscape:connector-curvature="0" /><circle
       style="fill:#ff5959"
       cx="199.07899"
       cy="244.02499"
       r="154.13"
       id="circle37" /><g
       id="g39"><path
         style="fill:#333e48"
         d="m 199.078,365.125 c -6.729,13.254 -17.948,23.839 -31.653,29.762 10.217,2.134 20.802,3.27 31.653,3.27 10.847,0 21.421,-1.145 31.633,-3.279 -13.695,-5.925 -24.907,-16.505 -31.633,-29.753 z"
         id="path41"
         inkscape:connector-curvature="0" /><path
         style="opacity:0.3;fill:#222222"
         d="m 199.078,365.125 c -6.729,13.254 -17.948,23.839 -31.653,29.762 4.084,0.853 8.229,1.539 12.424,2.064 8.052,-5.909 14.673,-13.653 19.229,-22.628 4.555,8.972 11.173,16.714 19.222,22.622 4.19,-0.527 8.33,-1.214 12.411,-2.067 -13.695,-5.925 -24.907,-16.505 -31.633,-29.753 z"
         id="path43"
         inkscape:connector-curvature="0" /></g><path
       style="opacity:0.3;fill:#222222"
       d="m 199.078,89.895 c -85.124,0 -154.13,69.007 -154.13,154.13 0,85.124 69.006,154.131 154.13,154.131 l 0,-308.261 z"
       id="path45"
       inkscape:connector-curvature="0" /><g
       id="g47"><path
         style="fill:#333e48"
         d="m 311.209,138.286 c -14.786,0.072 -26.75,12.078 -26.75,26.88 0,14.848 12.036,26.884 26.884,26.884 11.611,0 21.503,-7.362 25.263,-17.672 -6.722,-13.247 -15.301,-25.391 -25.397,-36.092 z"
         id="path49"
         inkscape:connector-curvature="0" /><circle
         style="fill:#333e48"
         cx="257.57501"
         cy="266.74799"
         r="26.884001"
         id="circle51" /><path
         style="fill:#333e48"
         d="m 292.734,344.354 c -14.847,0 -26.884,12.036 -26.884,26.884 0,3.785 0.786,7.386 2.198,10.652 15.795,-7.917 30.041,-18.464 42.16,-31.074 -4.698,-4.026 -10.799,-6.462 -17.474,-6.462 z"
         id="path53"
         inkscape:connector-curvature="0" /></g><g
       id="g55"><path
         style="fill:#333e48"
         d="m 86.947,138.286 c 14.786,0.072 26.75,12.078 26.75,26.88 0,14.848 -12.036,26.884 -26.884,26.884 -11.611,0 -21.503,-7.362 -25.263,-17.672 6.722,-13.247 15.303,-25.391 25.397,-36.092 z"
         id="path57"
         inkscape:connector-curvature="0" /><circle
         style="fill:#333e48"
         cx="140.58099"
         cy="266.74799"
         r="26.884001"
         id="circle59" /><path
         style="fill:#333e48"
         d="m 105.422,344.354 c 14.848,0 26.884,12.036 26.884,26.884 0,3.785 -0.786,7.386 -2.198,10.652 -15.795,-7.917 -30.041,-18.464 -42.16,-31.074 4.699,-4.026 10.8,-6.462 17.474,-6.462 z"
         id="path61"
         inkscape:connector-curvature="0" /></g><g
       id="g63"><path
         style="fill:#333e48"
         d="m 199.078,5.158 c -52.156,0 -94.436,42.281 -94.436,94.438 0,7.163 0.823,14.13 2.334,20.836 l 0.005,-0.005 c 29.737,19.248 66.712,26.921 92.098,26.921 25.386,0 62.36,-7.673 92.098,-26.921 l 0.004,0.007 c 1.512,-6.707 2.335,-13.675 2.335,-20.838 C 293.515,47.439 251.234,5.158 199.078,5.158 Z"
         id="path65"
         inkscape:connector-curvature="0" /><g
         id="g67"><path
           style="fill:#d1d3d3"
           d="m 275.675,44.387 c -10.183,1.153 -18.1,9.786 -18.1,20.278 0,11.277 9.142,20.419 20.419,20.419 5.167,0 9.872,-1.935 13.469,-5.099 -2.762,-13.072 -8.233,-25.134 -15.788,-35.598 z"
           id="path69"
           inkscape:connector-curvature="0" /><path
           style="fill:#d1d3d3"
           d="m 122.481,44.387 c 10.183,1.153 18.1,9.786 18.1,20.278 0,11.277 -9.143,20.419 -20.419,20.419 -5.167,0 -9.872,-1.935 -13.469,-5.099 2.762,-13.072 8.233,-25.134 15.788,-35.598 z"
           id="path71"
           inkscape:connector-curvature="0" /></g></g><path
       style="opacity:0.3;fill:#222222"
       d="m 104.642,99.595 c 0,7.163 0.823,14.13 2.334,20.836 l 0.005,-0.005 c 29.737,19.248 66.712,26.921 92.098,26.921 l 0,-142.189 c -52.157,0 -94.437,42.281 -94.437,94.437 z"
       id="path73"
       inkscape:connector-curvature="0" /></g></svg>