<?xml version="1.0" encoding="UTF-8" standalone="no"?>
<!-- Generator: Adobe Illustrator 18.1.1, SVG Export Plug-In . SVG Version: 6.00 Build 0)  -->

<svg
   xmlns:dc="http://purl.org/dc/elements/1.1/"
   xmlns:cc="http://creativecommons.org/ns#"
   xmlns:rdf="http://www.w3.org/1999/02/22-rdf-syntax-ns#"
   xmlns:svg="http://www.w3.org/2000/svg"
   xmlns="http://www.w3.org/2000/svg"
   xmlns:sodipodi="http://sodipodi.sourceforge.net/DTD/sodipodi-0.dtd"
   xmlns:inkscape="http://www.inkscape.org/namespaces/inkscape"
   version="1.1"
   id="Capa_1"
   x="0px"
   y="0px"
   viewBox="0 0 24 24"
   xml:space="preserve"
   inkscape:version="0.91 r13725"
   sodipodi:docname="facebook.svg"
   width="24"
   height="24"><metadata
     id="metadata43"><rdf:RDF><cc:Work
         rdf:about=""><dc:format>image/svg+xml</dc:format><dc:type
           rdf:resource="http://purl.org/dc/dcmitype/StillImage" /><dc:title></dc:title></cc:Work></rdf:RDF></metadata><defs
     id="defs41" /><sodipodi:namedview
     pagecolor="#ffffff"
     bordercolor="#666666"
     borderopacity="1"
     objecttolerance="10"
     gridtolerance="10"
     guidetolerance="10"
     inkscape:pageopacity="0"
     inkscape:pageshadow="2"
     inkscape:window-width="1920"
     inkscape:window-height="1051"
     id="namedview39"
     showgrid="false"
     inkscape:zoom="3.796875"
     inkscape:cx="90.776778"
     inkscape:cy="-33.229081"
     inkscape:window-x="0"
     inkscape:window-y="0"
     inkscape:window-maximized="1"
     inkscape:current-layer="Capa_1" /><g
     id="g9"
     transform="translate(0,-588)" /><g
     id="g11"
     transform="translate(0,-588)" /><g
     id="g13"
     transform="translate(0,-588)" /><g
     id="g15"
     transform="translate(0,-588)" /><g
     id="g17"
     transform="translate(0,-588)" /><g
     id="g19"
     transform="translate(0,-588)" /><g
     id="g21"
     transform="translate(0,-588)" /><g
     id="g23"
     transform="translate(0,-588)" /><g
     id="g25"
     transform="translate(0,-588)" /><g
     id="g27"
     transform="translate(0,-588)" /><g
     id="g29"
     transform="translate(0,-588)" /><g
     id="g31"
     transform="translate(0,-588)" /><g
     id="g33"
     transform="translate(0,-588)" /><g
     id="g35"
     transform="translate(0,-588)" /><g
     id="g37"
     transform="translate(0,-588)" /><path
     inkscape:connector-curvature="0"
     style="fill:#3a559f"
     d="m 2,2 0,20 10.651219,0 0,-7.725583 -2.603735,0 0,-3.153797 2.603735,0 0,-2.64863 c 0,-1.926272 1.561539,-3.487811 3.487811,-3.487811 l 2.722006,0 0,2.835978 -1.947732,0 c -0.612073,0 -1.108288,0.496215 -1.108288,1.1082876 l 0,2.1922194 3.007088,0 -0.415597,3.153797 -2.591491,0 0,7.725539 L 22,22 22,2 2,2 Z"
     id="path3" /></svg>