<?xml version="1.0" encoding="UTF-8" standalone="no"?>
<!-- Generator: Adobe Illustrator 18.1.1, SVG Export Plug-In . SVG Version: 6.00 Build 0)  -->

<svg
   xmlns:dc="http://purl.org/dc/elements/1.1/"
   xmlns:cc="http://creativecommons.org/ns#"
   xmlns:rdf="http://www.w3.org/1999/02/22-rdf-syntax-ns#"
   xmlns:svg="http://www.w3.org/2000/svg"
   xmlns="http://www.w3.org/2000/svg"
   xmlns:sodipodi="http://sodipodi.sourceforge.net/DTD/sodipodi-0.dtd"
   xmlns:inkscape="http://www.inkscape.org/namespaces/inkscape"
   version="1.1"
   id="Capa_1"
   x="0px"
   y="0px"
   viewBox="0 0 24 24"
   xml:space="preserve"
   inkscape:version="0.91 r13725"
   sodipodi:docname="google.svg"
   width="24"
   height="24"><metadata
     id="metadata43"><rdf:RDF><cc:Work
         rdf:about=""><dc:format>image/svg+xml</dc:format><dc:type
           rdf:resource="http://purl.org/dc/dcmitype/StillImage" /><dc:title></dc:title></cc:Work></rdf:RDF></metadata><defs
     id="defs41" /><sodipodi:namedview
     pagecolor="#ffffff"
     bordercolor="#666666"
     borderopacity="1"
     objecttolerance="10"
     gridtolerance="10"
     guidetolerance="10"
     inkscape:pageopacity="0"
     inkscape:pageshadow="2"
     inkscape:window-width="1920"
     inkscape:window-height="1051"
     id="namedview39"
     showgrid="false"
     inkscape:zoom="3.796875"
     inkscape:cx="90.776778"
     inkscape:cy="-33.229081"
     inkscape:window-x="0"
     inkscape:window-y="0"
     inkscape:window-maximized="1"
     inkscape:current-layer="Capa_1" /><g
     id="g9"
     transform="translate(0,-588)" /><g
     id="g11"
     transform="translate(0,-588)" /><g
     id="g13"
     transform="translate(0,-588)" /><g
     id="g15"
     transform="translate(0,-588)" /><g
     id="g17"
     transform="translate(0,-588)" /><g
     id="g19"
     transform="translate(0,-588)" /><g
     id="g21"
     transform="translate(0,-588)" /><g
     id="g23"
     transform="translate(0,-588)" /><g
     id="g25"
     transform="translate(0,-588)" /><g
     id="g27"
     transform="translate(0,-588)" /><g
     id="g29"
     transform="translate(0,-588)" /><g
     id="g31"
     transform="translate(0,-588)" /><g
     id="g33"
     transform="translate(0,-588)" /><g
     id="g35"
     transform="translate(0,-588)" /><g
     id="g37"
     transform="translate(0,-588)" /><g
     transform="matrix(0.17825948,0,0,0.17825948,1.9999998,2.0001779)"
     id="g4566"><title
       id="title4568">Layer 1</title><g
       id="svg_1"><g
         id="svg_2"><circle
           style="fill:#dc4e41"
           r="56.098"
           id="XMLID_30_"
           cy="56.097"
           cx="56.098" /></g><g
         id="svg_3"><path
           style="fill:#dc4e41"
           inkscape:connector-curvature="0"
           id="svg_4"
           d="m 19.531,56.608 c -0.199,9.652 6.449,18.863 15.594,21.867 8.614,2.894 19.205,0.729 24.937,-6.648 4.185,-5.169 5.136,-12.06 4.683,-18.498 -7.377,-0.066 -14.754,-0.044 -22.12,-0.033 -0.012,2.628 0,5.246 0.011,7.874 4.417,0.122 8.835,0.066 13.252,0.155 -1.115,3.821 -3.655,7.377 -7.51,8.757 -7.443,3.28 -16.94,-1.005 -19.282,-8.813 -2.827,-7.477 1.801,-16.5 9.442,-18.675 4.738,-1.667 9.619,0.21 13.673,2.673 2.054,-1.922 3.976,-3.976 5.864,-6.052 C 53.469,35.361 47.55,32.998 41.465,33.517 29.526,33.659 19.078,44.681 19.531,56.608 Z" /><path
           style="fill:#dc4e41"
           inkscape:connector-curvature="0"
           id="svg_5"
           d="m 79.102,46.668 c -0.022,2.198 -0.045,4.407 -0.056,6.604 -2.209,0.022 -4.406,0.033 -6.604,0.044 0,2.198 0,4.384 0,6.582 2.198,0.011 4.407,0.022 6.604,0.045 0.022,2.198 0.022,4.395 0.044,6.604 2.187,0 4.385,-0.011 6.582,0 0.012,-2.209 0.022,-4.406 0.045,-6.615 2.197,-0.011 4.406,-0.022 6.604,-0.033 0,-2.198 0,-4.384 0,-6.582 -2.197,-0.011 -4.406,-0.022 -6.604,-0.044 -0.012,-2.198 -0.033,-4.407 -0.045,-6.604 -2.197,-10e-4 -4.384,-10e-4 -6.57,-10e-4 z" /><g
           id="svg_6"><path
             style="fill:#ffffff"
             inkscape:connector-curvature="0"
             id="svg_7"
             d="m 19.531,56.608 c -0.453,-11.927 9.994,-22.949 21.933,-23.092 6.085,-0.519 12.005,1.844 16.61,5.698 -1.889,2.077 -3.811,4.13 -5.864,6.052 -4.054,-2.463 -8.935,-4.34 -13.673,-2.673 -7.642,2.176 -12.27,11.199 -9.442,18.675 2.342,7.808 11.839,12.093 19.282,8.813 3.854,-1.38 6.395,-4.936 7.51,-8.757 -4.417,-0.088 -8.835,-0.033 -13.252,-0.155 -0.011,-2.628 -0.022,-5.246 -0.011,-7.874 7.366,-0.011 14.743,-0.033 22.12,0.033 0.453,6.439 -0.497,13.33 -4.683,18.498 -5.732,7.377 -16.322,9.542 -24.937,6.648 C 25.981,75.471 19.332,66.26 19.531,56.608 Z" /><path
             style="fill:#ffffff"
             inkscape:connector-curvature="0"
             id="svg_8"
             d="m 79.102,46.668 c 2.187,0 4.373,0 6.57,0 0.012,2.198 0.033,4.407 0.045,6.604 2.197,0.022 4.406,0.033 6.604,0.044 0,2.198 0,4.384 0,6.582 -2.197,0.011 -4.406,0.022 -6.604,0.033 -0.022,2.209 -0.033,4.406 -0.045,6.615 -2.197,-0.011 -4.396,0 -6.582,0 -0.021,-2.209 -0.021,-4.406 -0.044,-6.604 -2.197,-0.023 -4.406,-0.033 -6.604,-0.045 0,-2.198 0,-4.384 0,-6.582 2.198,-0.011 4.396,-0.022 6.604,-0.044 0.011,-2.196 0.033,-4.405 0.056,-6.603 z" /></g></g></g><g
       id="svg_9" /><g
       id="svg_10" /><g
       id="svg_11" /><g
       id="svg_12" /><g
       id="svg_13" /><g
       id="svg_14" /><g
       id="svg_15" /><g
       id="svg_16" /><g
       id="svg_17" /><g
       id="svg_18" /><g
       id="svg_19" /><g
       id="svg_20" /><g
       id="svg_21" /><g
       id="svg_22" /><g
       id="svg_23" /></g></svg>