<?xml version="1.0" encoding="UTF-8" standalone="no"?>
<!-- Created with Inkscape (http://www.inkscape.org/) -->

<svg
   xmlns:dc="http://purl.org/dc/elements/1.1/"
   xmlns:cc="http://creativecommons.org/ns#"
   xmlns:rdf="http://www.w3.org/1999/02/22-rdf-syntax-ns#"
   xmlns:svg="http://www.w3.org/2000/svg"
   xmlns="http://www.w3.org/2000/svg"
   xmlns:sodipodi="http://sodipodi.sourceforge.net/DTD/sodipodi-0.dtd"
   xmlns:inkscape="http://www.inkscape.org/namespaces/inkscape"
   width="24"
   height="24"
   viewBox="0 0 24.000001 24"
   id="svg2"
   version="1.1"
   inkscape:version="0.91 r13725"
   sodipodi:docname="slimbooktouchpad-light-enabled.svg">
  <defs
     id="defs4">
    <linearGradient
       id="linearGradient3183-2-1-8-3">
      <stop
         id="stop3185-4-3-8-7"
         style="stop-color:#dcdcdc;stop-opacity:1;"
         offset="0" />
      <stop
         id="stop3187-9-9-1-1"
         style="stop-color:#b4b4b4;stop-opacity:1;"
         offset="1" />
    </linearGradient>
  </defs>
  <sodipodi:namedview
     id="base"
     pagecolor="#ffffff"
     bordercolor="#666666"
     borderopacity="1.0"
     inkscape:pageopacity="0.0"
     inkscape:pageshadow="2"
     inkscape:zoom="20.182764"
     inkscape:cx="9.5502283"
     inkscape:cy="5.9208938"
     inkscape:document-units="px"
     inkscape:current-layer="layer1"
     showgrid="false"
     units="px"
     inkscape:window-width="1920"
     inkscape:window-height="1051"
     inkscape:window-x="0"
     inkscape:window-y="0"
     inkscape:window-maximized="1" />
  <metadata
     id="metadata7">
    <rdf:RDF>
      <cc:Work
         rdf:about="">
        <dc:format>image/svg+xml</dc:format>
        <dc:type
           rdf:resource="http://purl.org/dc/dcmitype/StillImage" />
        <dc:title></dc:title>
      </cc:Work>
    </rdf:RDF>
  </metadata>
  <g
     inkscape:label="Capa 1"
     inkscape:groupmode="layer"
     id="layer1"
     transform="translate(0,-1028.3623)">
    <path
       style="fill:#dfdbd3;fill-opacity:1"
       d="m 9.9575446,1050.2992 c -1.8919242,-0.3377 -3.5094098,-1.7642 -4.1374875,-3.6488 -0.2801658,-0.8407 -0.2828931,-0.8783 -0.2828931,-3.9088 l 0,-2.7519 0.1125554,-0.2384 c 0.2318746,-0.491 0.702742,-0.8222 1.1702548,-0.823 0.2877204,-5e-4 0.4739583,0.057 0.7142966,0.2203 l 0.1769559,0.1202 0.09371,-0.1929 c 0.2122926,-0.4369 0.6666963,-0.7724 1.1187453,-0.826 0.2767204,-0.033 0.6289959,0.066 0.8781433,0.2467 0.1020009,0.074 0.1885106,0.1281 0.1922561,0.1203 0.2414748,-0.4978 0.5417768,-0.8067 0.9000528,-0.9257 0.328303,-0.109 0.824497,-0.073 1.0988,0.081 0.114064,0.064 0.213792,0.1159 0.22162,0.1159 0.0082,0 0.02,-0.7264 0.02709,-1.6143 l 0.01282,-1.6143 0.120465,-0.2453 c 0.335811,-0.6838 1.198782,-0.9966 1.858814,-0.6737 0.269839,0.1321 0.540605,0.4003 0.693706,0.6871 l 0.100583,0.1886 0.01173,3.9545 c 0.0064,2.175 0.02373,3.9545 0.03836,3.9545 0.01464,0 0.233738,-0.2 0.486849,-0.4442 0.745152,-0.7193 1.41173,-1.1159 1.87517,-1.1159 0.407294,0 0.833306,0.3747 0.973235,0.856 0.08618,0.2966 0.06018,0.572 -0.08146,0.8612 -0.222692,0.455 -2.909795,4.9729 -3.231589,5.4334 -0.789924,1.1303 -2.083953,1.9486 -3.461737,2.1889 -0.456921,0.08 -1.219255,0.077 -1.6810403,-0.01 z m -0.052091,-15.3236 c -0.068001,-0.085 -0.2300109,-0.5463 -0.2784749,-0.7916 -0.023727,-0.12 -0.042364,-0.4144 -0.041455,-0.6541 0.00364,-0.8482 0.3174207,-1.5897 0.9354076,-2.2077 0.416958,-0.4169 0.771743,-0.632 1.321774,-0.8012 0.53995,-0.1661 0.912944,-0.1962 1.435121,-0.116 0.662732,0.1019 1.192246,0.3533 1.690168,0.8027 0.275111,0.2484 0.515022,0.5632 0.515022,0.6758 0,0.038 -0.04973,0.092 -0.110519,0.1194 -0.104901,0.048 -0.129692,0.03 -0.48754,-0.3429 -0.691769,-0.7217 -1.413957,-1.0046 -2.345155,-0.9186 -1.314865,0.1213 -2.35721,1.1049 -2.55983,2.4156 -0.069364,0.4489 -0.036,0.8413 0.10941,1.2869 0.135738,0.4158 0.129065,0.5569 -0.02718,0.575 -0.06164,0.01 -0.1321738,-0.013 -0.1567558,-0.044 z m 1.3834388,-0.7822 c -0.07873,-0.096 -0.14162,-0.4102 -0.144538,-0.7216 -0.0045,-0.4697 0.206956,-0.957 0.543159,-1.2522 0.527022,-0.4627 1.286183,-0.5572 1.916952,-0.2384 0.365157,0.1845 0.773315,0.6629 0.565595,0.6629 -0.03091,0 -0.133301,-0.08 -0.22752,-0.178 -0.44054,-0.4576 -0.925335,-0.6021 -1.50923,-0.45 -0.439295,0.1143 -0.811597,0.4376 -1.01449,0.8808 -0.133837,0.2924 -0.151074,0.7977 -0.03636,1.0666 0.09682,0.227 0.03291,0.384 -0.09356,0.2299 z"
       id="path4147"
       inkscape:connector-curvature="0" />
  </g>
</svg>
