<?xml version="1.0" encoding="UTF-8" standalone="no"?>
<!-- Created with Inkscape (http://www.inkscape.org/) -->

<svg
   xmlns:dc="http://purl.org/dc/elements/1.1/"
   xmlns:cc="http://creativecommons.org/ns#"
   xmlns:rdf="http://www.w3.org/1999/02/22-rdf-syntax-ns#"
   xmlns:svg="http://www.w3.org/2000/svg"
   xmlns="http://www.w3.org/2000/svg"
   xmlns:xlink="http://www.w3.org/1999/xlink"
   xmlns:sodipodi="http://sodipodi.sourceforge.net/DTD/sodipodi-0.dtd"
   xmlns:inkscape="http://www.inkscape.org/namespaces/inkscape"
   width="24"
   height="24"
   viewBox="0 0 24.000001 24"
   id="svg2"
   version="1.1"
   inkscape:version="0.91 r13725"
   sodipodi:docname="slimbooktouchpad-dark-disabled.svg">
  <defs
     id="defs4">
    <linearGradient
       inkscape:collect="always"
       xlink:href="#linearGradient3183-2-1-8-3"
       id="linearGradient5492-6"
       gradientUnits="userSpaceOnUse"
       gradientTransform="matrix(0,-4.5571071,4.5043208,0,344.62311,643.30603)"
       x1="11"
       y1="11.015625"
       x2="19"
       y2="11.015625" />
    <linearGradient
       id="linearGradient3183-2-1-8-3">
      <stop
         id="stop3185-4-3-8-7"
         style="stop-color:#dcdcdc;stop-opacity:1;"
         offset="0" />
      <stop
         id="stop3187-9-9-1-1"
         style="stop-color:#b4b4b4;stop-opacity:1;"
         offset="1" />
    </linearGradient>
  </defs>
  <sodipodi:namedview
     id="base"
     pagecolor="#ffffff"
     bordercolor="#666666"
     borderopacity="1.0"
     inkscape:pageopacity="0.0"
     inkscape:pageshadow="2"
     inkscape:zoom="20.182764"
     inkscape:cx="9.5502283"
     inkscape:cy="5.9208938"
     inkscape:document-units="px"
     inkscape:current-layer="layer1"
     showgrid="false"
     units="px"
     inkscape:window-width="1920"
     inkscape:window-height="1051"
     inkscape:window-x="0"
     inkscape:window-y="0"
     inkscape:window-maximized="1" />
  <metadata
     id="metadata7">
    <rdf:RDF>
      <cc:Work
         rdf:about="">
        <dc:format>image/svg+xml</dc:format>
        <dc:type
           rdf:resource="http://purl.org/dc/dcmitype/StillImage" />
        <dc:title></dc:title>
      </cc:Work>
    </rdf:RDF>
  </metadata>
  <g
     inkscape:label="Capa 1"
     inkscape:groupmode="layer"
     id="layer1"
     transform="translate(0,-1028.3623)">
    <path
       style="fill:#3c3c3c;fill-opacity:1"
       d="m 9.9575446,1050.2992 c -1.8919242,-0.3377 -3.5094098,-1.7642 -4.1374875,-3.6488 -0.2801658,-0.8407 -0.2828931,-0.8783 -0.2828931,-3.9088 l 0,-2.7519 0.1125554,-0.2384 c 0.2318746,-0.491 0.702742,-0.8222 1.1702548,-0.823 0.2877204,-5e-4 0.4739583,0.057 0.7142966,0.2203 l 0.1769559,0.1202 0.09371,-0.1929 c 0.2122926,-0.4369 0.6666963,-0.7724 1.1187453,-0.826 0.2767204,-0.033 0.6289959,0.066 0.8781433,0.2467 0.1020009,0.074 0.1885106,0.1281 0.1922561,0.1203 0.2414748,-0.4978 0.5417768,-0.8067 0.9000528,-0.9257 0.328303,-0.109 0.824497,-0.073 1.0988,0.081 0.114064,0.064 0.213792,0.1159 0.22162,0.1159 0.0082,0 0.02,-0.7264 0.02709,-1.6143 l 0.01282,-1.6143 0.120465,-0.2453 c 0.335811,-0.6838 1.198782,-0.9966 1.858814,-0.6737 0.269839,0.1321 0.540605,0.4003 0.693706,0.6871 l 0.100583,0.1886 0.01173,3.9545 c 0.0064,2.175 0.02373,3.9545 0.03836,3.9545 0.01464,0 0.233738,-0.2 0.486849,-0.4442 0.745152,-0.7193 1.41173,-1.1159 1.87517,-1.1159 0.407294,0 0.833306,0.3747 0.973235,0.856 0.08618,0.2966 0.06018,0.572 -0.08146,0.8612 -0.222692,0.455 -2.909795,4.9729 -3.231589,5.4334 -0.789924,1.1303 -2.083953,1.9486 -3.461737,2.1889 -0.456921,0.08 -1.219255,0.077 -1.6810403,-0.01 z m -0.052091,-15.3236 c -0.068001,-0.085 -0.2300109,-0.5463 -0.2784749,-0.7916 -0.023727,-0.12 -0.042364,-0.4144 -0.041455,-0.6541 0.00364,-0.8482 0.3174207,-1.5897 0.9354076,-2.2077 0.416958,-0.4169 0.771743,-0.632 1.321774,-0.8012 0.53995,-0.1661 0.912944,-0.1962 1.435121,-0.116 0.662732,0.1019 1.192246,0.3533 1.690168,0.8027 0.275111,0.2484 0.515022,0.5632 0.515022,0.6758 0,0.038 -0.04973,0.092 -0.110519,0.1194 -0.104901,0.048 -0.129692,0.03 -0.48754,-0.3429 -0.691769,-0.7217 -1.413957,-1.0046 -2.345155,-0.9186 -1.314865,0.1213 -2.35721,1.1049 -2.55983,2.4156 -0.069364,0.4489 -0.036,0.8413 0.10941,1.2869 0.135738,0.4158 0.129065,0.5569 -0.02718,0.575 -0.06164,0.01 -0.1321738,-0.013 -0.1567558,-0.044 z m 1.3834388,-0.7822 c -0.07873,-0.096 -0.14162,-0.4102 -0.144538,-0.7216 -0.0045,-0.4697 0.206956,-0.957 0.543159,-1.2522 0.527022,-0.4627 1.286183,-0.5572 1.916952,-0.2384 0.365157,0.1845 0.773315,0.6629 0.565595,0.6629 -0.03091,0 -0.133301,-0.08 -0.22752,-0.178 -0.44054,-0.4576 -0.925335,-0.6021 -1.50923,-0.45 -0.439295,0.1143 -0.811597,0.4376 -1.01449,0.8808 -0.133837,0.2924 -0.151074,0.7977 -0.03636,1.0666 0.09682,0.227 0.03291,0.384 -0.09356,0.2299 z"
       id="path4147"
       inkscape:connector-curvature="0" />
    <g
       transform="matrix(0.39718673,0,0,0.39718673,-144.58721,812.70665)"
       id="g8124">
      <path
         style="display:inline;opacity:0.1;fill:#000000;fill-opacity:1;fill-rule:evenodd;stroke:none"
         id="path3761-2-1"
         d="m 384.88945,555.24942 c 10e-4,-1.3e-4 -0.14351,0.0476 -0.14241,0.0475 10e-4,-1.8e-4 -0.14349,2.4e-4 -0.14241,0 0.001,-2.3e-4 -0.14347,0.0478 -0.14241,0.0475 0.002,-4e-4 -0.19141,0.048 -0.18988,0.0475 0.002,-5.1e-4 -0.19137,0.0956 -0.18988,0.0949 0.002,-6.2e-4 -0.23879,0.0957 -0.23735,0.0949 0.001,-7.3e-4 -0.19126,0.0958 -0.18988,0.0949 10e-4,-8.3e-4 -0.14373,0.14334 -0.14241,0.14241 0.001,-9.3e-4 -0.19112,0.096 -0.18988,0.0949 10e-4,-0.001 -0.14358,0.14352 -0.14241,0.14241 9.1e-4,-8.3e-4 -0.0999,0.0991 -0.14241,0.14241 -0.0141,0.0144 -0.0477,0.0478 -0.0475,0.0475 l -9.11421,9.20915 c 10e-4,-0.002 -0.19118,0.239 -0.18988,0.23735 10e-4,-0.002 -0.14355,0.19165 -0.14241,0.18988 10e-4,-0.002 -0.14337,0.23922 -0.14241,0.23735 9.6e-4,-0.002 -0.14318,0.28677 -0.14241,0.28482 7.8e-4,-0.002 -0.0955,0.23936 -0.0949,0.23735 5.9e-4,-0.002 -0.0479,0.28688 -0.0475,0.28482 4e-4,-0.002 -0.0477,0.28691 -0.0475,0.28482 2e-4,-0.002 0,0.28692 0,0.28482 0,-0.002 2e-4,0.28691 0,0.28481 -2e-4,-0.002 0.0479,0.28689 0.0475,0.28482 -3.9e-4,-0.002 0.0481,0.28684 0.0475,0.28482 -5.9e-4,-0.002 0.0957,0.2393 0.0949,0.23735 -7.8e-4,-0.002 0.14337,0.28669 0.14241,0.28482 -9.6e-4,-0.002 0.14355,0.23912 0.14241,0.23735 -0.001,-0.002 0.1437,0.19153 0.14241,0.18988 -10e-4,-0.002 0.19133,0.23887 0.18988,0.23735 l 6.83566,6.9306 -6.83566,6.9306 c 10e-4,-0.002 -0.19118,0.239 -0.18988,0.23735 10e-4,-0.002 -0.14355,0.19165 -0.14241,0.18988 10e-4,-0.002 -0.14337,0.23921 -0.14241,0.23735 9.6e-4,-0.002 -0.14318,0.28677 -0.14241,0.28482 7.8e-4,-0.002 -0.0955,0.23936 -0.0949,0.23734 5.9e-4,-0.002 -0.0479,0.28689 -0.0475,0.28482 4e-4,-0.002 -0.0477,0.28691 -0.0475,0.28482 2e-4,-0.002 0,0.28692 0,0.28482 0,-0.002 2e-4,0.28691 0,0.28482 -2e-4,-0.002 0.0479,0.28688 0.0475,0.28482 -3.9e-4,-0.002 0.0481,0.28684 0.0475,0.28482 -5.9e-4,-0.002 0.0957,0.2393 0.0949,0.23735 -7.8e-4,-0.002 0.14337,0.28669 0.14241,0.28482 -9.6e-4,-0.002 0.14355,0.23912 0.14241,0.23735 -0.001,-0.002 0.1437,0.19153 0.14241,0.18988 -10e-4,-0.002 0.19133,0.23887 0.18988,0.23735 l 9.16168,9.25662 c -0.002,-0.002 0.19153,0.19129 0.18988,0.18988 -0.002,-10e-4 0.23913,0.19112 0.23735,0.18988 -0.002,-10e-4 0.23924,0.14347 0.23735,0.14241 -0.002,-10e-4 0.2868,0.14327 0.28482,0.14241 -0.002,-8.4e-4 0.28688,0.0956 0.28482,0.0949 -0.002,-6.8e-4 0.23946,0.0954 0.23735,0.0949 -0.002,-4.7e-4 0.28697,0.0477 0.28482,0.0475 -0.002,-2.7e-4 0.33445,5e-5 0.33229,0 -0.002,-5e-5 0.28697,-1.6e-4 0.28482,0 -0.002,1.6e-4 0.28695,-0.0478 0.28481,-0.0475 -0.002,3.7e-4 0.28691,-0.048 0.28482,-0.0475 -0.002,5.8e-4 0.23937,-0.0957 0.23735,-0.0949 -0.002,7.6e-4 0.28676,-0.0959 0.28482,-0.0949 -0.002,9.8e-4 0.23918,-0.14357 0.23735,-0.14241 -0.002,10e-4 0.23906,-0.19121 0.23735,-0.18988 -0.002,10e-4 0.23892,-0.19137 0.23735,-0.18988 l 6.97807,-6.9306 6.69325,6.83566 c -7.6e-4,-8.4e-4 0.0957,0.0957 0.0949,0.0949 -8.4e-4,-7.6e-4 0.14326,0.0957 0.14241,0.0949 -8.4e-4,-7.2e-4 0.0958,0.0956 0.0949,0.0949 -9.1e-4,-6.8e-4 0.14332,0.0956 0.14241,0.0949 -9.1e-4,-6.4e-4 0.0959,0.0955 0.0949,0.0949 -9.1e-4,-5.9e-4 0.14338,0.0955 0.14241,0.0949 -9.9e-4,-5.4e-4 0.14341,0.048 0.14241,0.0475 -9.9e-4,-4.9e-4 0.14344,0.0479 0.14241,0.0475 -10e-4,-4.4e-4 0.096,0.0479 0.0949,0.0475 -10e-4,-3.9e-4 0.14347,0.0478 0.14241,0.0475 -10e-4,-3.3e-4 0.14348,0.0477 0.14241,0.0475 -0.001,-2.8e-4 0.19097,0.0477 0.18988,0.0475 -10e-4,-2.3e-4 0.14351,0.0476 0.1424,0.0475 -10e-4,-1.7e-4 0.14352,1.1e-4 0.14241,0 -10e-4,-1.2e-4 0.14352,5e-5 0.14241,0 -0.001,-6e-5 0.14352,0 0.14241,0 -10e-4,0 0.14352,-6e-5 0.14241,0 -10e-4,5e-5 0.14352,-1.2e-4 0.14241,0 -0.001,1.1e-4 0.14352,-1.7e-4 0.14241,0 -0.001,1.6e-4 0.14351,-0.0477 0.14241,-0.0475 -10e-4,2.2e-4 0.19096,-0.0477 0.18988,-0.0475 -0.001,2.7e-4 0.14347,-0.0478 0.14241,-0.0475 -10e-4,3.3e-4 0.14346,-0.0479 0.14241,-0.0475 -10e-4,3.8e-4 0.096,-0.0479 0.0949,-0.0475 -0.001,4.3e-4 0.14341,-0.048 0.14241,-0.0475 -9.9e-4,4.8e-4 0.14338,-0.048 0.14241,-0.0475 -9.9e-4,5.3e-4 0.14335,-0.0955 0.14241,-0.0949 -9.1e-4,5.8e-4 0.0958,-0.0956 0.0949,-0.0949 -9.1e-4,6.3e-4 0.14329,-0.0956 0.14241,-0.0949 -9.1e-4,6.8e-4 0.0958,-0.0957 0.0949,-0.0949 -8.4e-4,7.2e-4 0.14321,-0.0957 0.14241,-0.0949 -8.4e-4,7.6e-4 0.0957,-0.0958 0.0949,-0.0949 l 9.4465,-9.54144 c -0.002,0.002 0.19121,-0.23906 0.18988,-0.23735 -0.001,0.002 0.19104,-0.23918 0.18988,-0.23735 -10e-4,0.002 0.14338,-0.23928 0.14241,-0.23735 -9.9e-4,0.002 0.0957,-0.28684 0.0949,-0.28482 -7.6e-4,0.002 0.0955,-0.23944 0.0949,-0.23735 -5.8e-4,0.002 0.0478,-0.28695 0.0475,-0.28482 -3.8e-4,0.002 0.0476,-0.28698 0.0475,-0.28482 -1.6e-4,0.002 -5e-5,-0.28698 0,-0.28482 5e-5,0.002 -2.6e-4,-0.33444 0,-0.33229 2.6e-4,0.002 -0.0479,-0.28693 -0.0475,-0.28481 4.7e-4,0.002 -0.0956,-0.23941 -0.0949,-0.23735 6.7e-4,0.002 -0.0958,-0.28681 -0.0949,-0.28482 8.3e-4,0.002 -0.14348,-0.28671 -0.14241,-0.28482 10e-4,0.002 -0.14366,-0.23913 -0.14241,-0.23735 10e-4,0.002 -0.19129,-0.23899 -0.18988,-0.23735 10e-4,0.002 -0.19144,-0.19138 -0.18988,-0.18988 l -6.69325,-6.55084 6.69325,-6.55084 c -0.002,0.002 0.19129,-0.19152 0.18988,-0.18988 -10e-4,0.002 0.19112,-0.23912 0.18988,-0.23735 -0.001,0.002 0.14347,-0.23924 0.14241,-0.23735 -10e-4,0.002 0.14327,-0.2868 0.14241,-0.28482 -8.4e-4,0.002 0.0956,-0.28687 0.0949,-0.28482 -6.8e-4,0.002 0.0954,-0.23946 0.0949,-0.23735 -4.7e-4,0.002 0.0477,-0.28697 0.0475,-0.28482 -2.6e-4,0.002 5e-5,-0.33445 0,-0.33229 -5e-5,0.002 -1.6e-4,-0.28697 0,-0.28481 1.6e-4,0.002 -0.0479,-0.28696 -0.0475,-0.28482 3.7e-4,0.002 -0.048,-0.28691 -0.0475,-0.28482 5.8e-4,0.002 -0.0957,-0.23937 -0.0949,-0.23735 7.6e-4,0.002 -0.0959,-0.28676 -0.0949,-0.28482 9.9e-4,0.002 -0.14357,-0.23918 -0.14241,-0.23735 0.001,0.002 -0.19121,-0.23906 -0.18988,-0.23735 10e-4,0.002 -0.19137,-0.23892 -0.18988,-0.23735 l -9.4465,-9.54144 c 7.6e-4,8e-4 -0.0958,-0.0957 -0.0949,-0.0949 8.3e-4,7.7e-4 -0.14326,-0.0957 -0.14241,-0.0949 8.3e-4,7.2e-4 -0.0958,-0.0956 -0.0949,-0.0949 9.1e-4,6.8e-4 -0.14332,-0.0956 -0.14241,-0.0949 9.1e-4,6.3e-4 -0.0959,-0.0955 -0.0949,-0.0949 9.1e-4,5.9e-4 -0.14338,-0.0955 -0.14241,-0.0949 9.9e-4,5.4e-4 -0.14341,-0.048 -0.14241,-0.0475 9.9e-4,4.9e-4 -0.14344,-0.0479 -0.14241,-0.0475 9.9e-4,4.4e-4 -0.096,-0.0478 -0.0949,-0.0475 0.001,3.9e-4 -0.14347,-0.0478 -0.14241,-0.0475 0.001,3.3e-4 -0.14349,-0.0477 -0.14241,-0.0475 10e-4,2.8e-4 -0.19097,-0.0477 -0.18988,-0.0475 0.001,2.2e-4 -0.14352,-0.0476 -0.14241,-0.0475 10e-4,1.7e-4 -0.14352,-1.1e-4 -0.14241,0 10e-4,1.1e-4 -0.14352,-5e-5 -0.14241,0 0.001,6e-5 -0.14352,0 -0.14241,0 10e-4,0 -0.14351,6e-5 -0.14241,0 10e-4,-5e-5 -0.14351,1.1e-4 -0.14241,0 0.001,-1.1e-4 -0.14351,1.7e-4 -0.14241,0 0.001,-1.7e-4 -0.1435,0.0477 -0.1424,0.0475 0.001,-2.2e-4 -0.19096,0.0477 -0.18988,0.0475 10e-4,-2.8e-4 -0.14348,0.0478 -0.14241,0.0475 0.001,-3.3e-4 -0.14346,0.0479 -0.14241,0.0475 10e-4,-3.8e-4 -0.096,0.0479 -0.0949,0.0475 9.8e-4,-4.4e-4 -0.14342,0.048 -0.14241,0.0475 9.8e-4,-4.9e-4 -0.14338,0.048 -0.14241,0.0475 9.9e-4,-5.4e-4 -0.14335,0.0955 -0.14241,0.0949 9.1e-4,-5.9e-4 -0.0958,0.0956 -0.0949,0.0949 9.1e-4,-6.3e-4 -0.14329,0.0956 -0.14241,0.0949 9.1e-4,-6.8e-4 -0.0958,0.0957 -0.0949,0.0949 8.3e-4,-7.2e-4 -0.14322,0.0957 -0.14241,0.0949 8.4e-4,-7.7e-4 -0.0957,0.0957 -0.0949,0.0949 l -6.69325,6.83566 -6.9306,-6.88313 c 2.6e-4,2.6e-4 -0.0315,-0.0322 -0.0475,-0.0475 -0.0319,-0.0305 -0.0955,-0.0954 -0.0949,-0.0949 8.4e-4,7.5e-4 -0.0958,-0.0956 -0.0949,-0.0949 8.4e-4,7e-4 -0.0958,-0.0956 -0.0949,-0.0949 9.1e-4,6.6e-4 -0.14333,-0.0481 -0.14241,-0.0475 9.1e-4,6.2e-4 -0.14336,-0.0955 -0.14241,-0.0949 9.9e-4,5.7e-4 -0.0959,-0.0955 -0.0949,-0.0949 9.9e-4,5.2e-4 -0.14341,-0.0479 -0.14241,-0.0475 9.9e-4,4.7e-4 -0.14344,-0.0479 -0.14241,-0.0475 0.001,4.2e-4 -0.14345,-0.0478 -0.14241,-0.0475 10e-4,3.7e-4 -0.14347,-0.0478 -0.14241,-0.0475 10e-4,3.2e-4 -0.14348,-0.0477 -0.14241,-0.0475 0.001,2.6e-4 -0.1435,-0.0477 -0.14241,-0.0475 10e-4,2.1e-4 -0.1435,-1.5e-4 -0.1424,0 0.001,1.5e-4 -0.14352,-0.0476 -0.14241,-0.0475 10e-4,10e-5 -0.14352,-4e-5 -0.14241,0 10e-4,4e-5 -0.14352,2e-5 -0.14241,0 a 1.5138334,1.5138334 0 0 0 -0.0949,0 c 0.001,-7e-5 -0.14351,1.3e-4 -0.14241,0 z"
         inkscape:connector-curvature="0" />
      <path
         style="display:inline;opacity:0.15;fill:#000000;fill-opacity:1;fill-rule:evenodd;stroke:none"
         id="path3757-3-0"
         d="m 384.84198,556.81593 a 1.4473112,1.4473112 0 0 0 -0.71205,0.42723 l -9.16168,9.25662 a 1.4473112,1.4473112 0 0 0 0,1.99373 l 7.87999,7.97494 -7.87999,7.97494 a 1.4473112,1.4473112 0 0 0 0,1.99373 l 9.16168,9.25662 a 1.4473112,1.4473112 0 0 0 2.0412,0.0475 l 8.02241,-7.97493 7.78506,7.92746 a 1.4473112,1.4473112 0 0 0 2.08867,0 l 9.4465,-9.54144 a 1.4473112,1.4473112 0 0 0 -0.0475,-2.0412 l -7.83252,-7.64265 7.83252,-7.64265 a 1.4473112,1.4473112 0 0 0 0.0475,-2.0412 l -9.4465,-9.54144 a 1.4473112,1.4473112 0 0 0 -2.08867,0 l -7.78506,7.92746 -8.02241,-7.97493 a 1.4473112,1.4473112 0 0 0 -1.32915,-0.37976 z"
         inkscape:connector-curvature="0" />
      <path
         style="display:inline;opacity:0.3;fill:#000000;fill-opacity:1;fill-rule:evenodd;stroke:none"
         id="path3751-1-4"
         d="m 376.01259,585.44026 9.1494,9.25661 9.00864,-8.9718 8.86788,8.9718 9.43093,-9.54143 -8.86789,-8.68699 8.86789,-8.68698 -9.43093,-9.54145 -8.86788,8.97181 -9.00864,-8.97181 -9.1494,9.25663 8.86788,8.9718 -8.86788,8.97181 z"
         inkscape:connector-curvature="0" />
      <path
         style="display:inline;fill:url(#linearGradient5492-6);fill-opacity:1;fill-rule:evenodd;stroke:none"
         id="path7165-5-9"
         d="m 376.01259,583.92122 9.1494,9.25662 9.00864,-8.9718 8.86788,8.9718 9.43093,-9.54144 -8.86789,-8.68698 8.86789,-8.68699 -9.43093,-9.54144 -8.86788,8.9718 -9.00864,-8.9718 -9.1494,9.25662 8.86788,8.97181 -8.86788,8.9718 z"
         inkscape:connector-curvature="0" />
      <path
         style="display:inline;opacity:0.2;fill:#ffffff;fill-opacity:1;fill-rule:evenodd;stroke:none"
         id="path2970-7-2"
         d="m 385.17427,556.72099 -9.16168,9.25662 1.51903,1.51904 7.64265,-7.73759 9.01927,8.9718 8.82939,-8.9718 7.92747,7.97493 1.51904,-1.47156 -9.44651,-9.54144 -8.82939,8.9718 -9.01927,-8.9718 z m -0.29595,18.19168 -8.86573,9.00855 1.51903,1.51903 7.35783,-7.45277 -0.0111,-3.07481 z m 18.74891,0.0718 -0.0347,3.003 7.35783,7.21542 1.51903,-1.5665 -8.8422,-8.65192 z"
         inkscape:connector-curvature="0" />
    </g>
  </g>
</svg>
