<?xml version="1.0" encoding="UTF-8" standalone="no"?>
<!-- Generator: Adobe Illustrator 18.1.1, SVG Export Plug-In . SVG Version: 6.00 Build 0)  -->

<svg
   xmlns:dc="http://purl.org/dc/elements/1.1/"
   xmlns:cc="http://creativecommons.org/ns#"
   xmlns:rdf="http://www.w3.org/1999/02/22-rdf-syntax-ns#"
   xmlns:svg="http://www.w3.org/2000/svg"
   xmlns="http://www.w3.org/2000/svg"
   xmlns:sodipodi="http://sodipodi.sourceforge.net/DTD/sodipodi-0.dtd"
   xmlns:inkscape="http://www.inkscape.org/namespaces/inkscape"
   version="1.1"
   id="Capa_1"
   x="0px"
   y="0px"
   viewBox="0 0 24 24"
   xml:space="preserve"
   inkscape:version="0.91 r13725"
   sodipodi:docname="slimbook.svg"
   width="24"
   height="24"><metadata
     id="metadata43"><rdf:RDF><cc:Work
         rdf:about=""><dc:format>image/svg+xml</dc:format><dc:type
           rdf:resource="http://purl.org/dc/dcmitype/StillImage" /><dc:title></dc:title></cc:Work></rdf:RDF></metadata><defs
     id="defs41" /><sodipodi:namedview
     pagecolor="#ffffff"
     bordercolor="#666666"
     borderopacity="1"
     objecttolerance="10"
     gridtolerance="10"
     guidetolerance="10"
     inkscape:pageopacity="0"
     inkscape:pageshadow="2"
     inkscape:window-width="1920"
     inkscape:window-height="1051"
     id="namedview39"
     showgrid="false"
     inkscape:zoom="3.796875"
     inkscape:cx="106.79873"
     inkscape:cy="-57.064472"
     inkscape:window-x="0"
     inkscape:window-y="0"
     inkscape:window-maximized="1"
     inkscape:current-layer="Capa_1" /><g
     id="g9"
     transform="translate(0,-588)" /><g
     id="g11"
     transform="translate(0,-588)" /><g
     id="g13"
     transform="translate(0,-588)" /><g
     id="g15"
     transform="translate(0,-588)" /><g
     id="g17"
     transform="translate(0,-588)" /><g
     id="g19"
     transform="translate(0,-588)" /><g
     id="g21"
     transform="translate(0,-588)" /><g
     id="g23"
     transform="translate(0,-588)" /><g
     id="g25"
     transform="translate(0,-588)" /><g
     id="g27"
     transform="translate(0,-588)" /><g
     id="g29"
     transform="translate(0,-588)" /><g
     id="g31"
     transform="translate(0,-588)" /><g
     id="g33"
     transform="translate(0,-588)" /><g
     id="g35"
     transform="translate(0,-588)" /><g
     id="g37"
     transform="translate(0,-588)" /><path
     style="opacity:1;fill:#000000;fill-opacity:1;fill-rule:nonzero;stroke:none;stroke-width:10;stroke-linecap:round;stroke-miterlimit:4;stroke-dasharray:none;stroke-dashoffset:0;stroke-opacity:1"
     d="M 2.53386,4.407315 C 2.2381,4.407315 2,4.645425 2,4.941175 l 0,1.64459 c 0,0.29576 0.2381,0.53386 0.53386,0.53386 l 0.330697,0 c 0,0 0.33381,-0.007 0.330697,0.45378 l 0,0.45379 0,11.03163 c 0,0.29576 0.238103,0.53386 0.533861,0.53386 l 1.463173,0 c 0.295761,0 0.533861,-0.2381 0.533861,-0.53386 l 0,-12.47306 0,-1.64459 c 0,-0.29575 -0.2381,-0.53386 -0.533861,-0.53386 l -1.463173,0 -1.195255,0 z m 7.002472,0 c -1.465226,0 -2.645082,1.17936 -2.645082,2.64459 l 0,9.8957 c 0,1.46523 1.179856,2.64508 2.645082,2.64508 l 4.83391,0 c 1.465229,0 2.644587,-1.17985 2.644587,-2.64508 l 0,-9.8957 c 0,-1.46523 -1.179358,-2.64459 -2.644587,-2.64459 l -4.83391,0 z m 9.271379,0 c -0.29576,0 -0.53386,0.23811 -0.53386,0.53386 l 0,1.64459 0,12.47306 c 0,0.29576 0.2381,0.53386 0.53386,0.53386 l 1.463174,0 c 0.295757,0 0.533861,-0.2381 0.533861,-0.53386 l 0,-11.03163 0,-0.45379 c -0.0031,-0.46076 0.330697,-0.45378 0.330697,-0.45378 l 0.330697,0 C 21.761901,7.119625 22,6.881525 22,6.585765 l 0,-1.64459 c 0,-0.29575 -0.238099,-0.53386 -0.53386,-0.53386 l -1.195255,0 -1.463174,0 z m -8.063272,2.5309 2.417202,0 c 0.732613,0 1.322294,0.58968 1.322294,1.32229 l 0,7.4785 c 0,0.73261 -0.589681,1.32279 -1.322294,1.32279 l -2.417202,0 c -0.732613,0 -1.322294,-0.59018 -1.322294,-1.32279 l 0,-7.4785 c 0,-0.73261 0.589681,-1.32229 1.322294,-1.32229 z"
     id="rect5262"
     inkscape:connector-curvature="0" /></svg>