<?xml version="1.0" encoding="UTF-8" standalone="no"?>
<svg
   xmlns:dc="http://purl.org/dc/elements/1.1/"
   xmlns:cc="http://creativecommons.org/ns#"
   xmlns:rdf="http://www.w3.org/1999/02/22-rdf-syntax-ns#"
   xmlns:svg="http://www.w3.org/2000/svg"
   xmlns="http://www.w3.org/2000/svg"
   xmlns:xlink="http://www.w3.org/1999/xlink"
   xmlns:sodipodi="http://sodipodi.sourceforge.net/DTD/sodipodi-0.dtd"
   xmlns:inkscape="http://www.inkscape.org/namespaces/inkscape"
   width="24"
   height="24"
   id="svg2"
   version="1.1"
   inkscape:version="1.0.2 (e86c870879, 2021-01-15)"
   sodipodi:docname="touchpad-indicator-light-disabled.svg">
  <defs
     id="defs4">
    <linearGradient
       id="linearGradient3813">
      <stop
         style="stop-color:#787878;stop-opacity:1;"
         offset="0"
         id="stop3815" />
      <stop
         style="stop-color:#787878;stop-opacity:1;"
         offset="1"
         id="stop3817" />
    </linearGradient>
    <linearGradient
       id="linearGradient3975">
      <stop
         style="stop-color:#ffffff;stop-opacity:1;"
         offset="0"
         id="stop3977" />
      <stop
         style="stop-color:#c8c8c8;stop-opacity:1;"
         offset="1"
         id="stop3979" />
    </linearGradient>
    <linearGradient
       inkscape:collect="always"
       xlink:href="#linearGradient3975-8"
       id="linearGradient3981-2"
       x1="7.1419578"
       y1="563.79279"
       x2="757.14569"
       y2="563.79279"
       gradientUnits="userSpaceOnUse" />
    <linearGradient
       id="linearGradient3975-8">
      <stop
         style="stop-color:#ffffff;stop-opacity:1;"
         offset="0"
         id="stop3977-9" />
      <stop
         style="stop-color:#c8c8c8;stop-opacity:1;"
         offset="1"
         id="stop3979-7" />
    </linearGradient>
    <linearGradient
       inkscape:collect="always"
       xlink:href="#linearGradient3183"
       id="linearGradient4154"
       gradientUnits="userSpaceOnUse"
       gradientTransform="matrix(0,-3.0000004,2.9652505,0,13.335916,19.000009)"
       x1="11"
       y1="11.015625"
       x2="19"
       y2="11.015625" />
    <linearGradient
       id="linearGradient3183">
      <stop
         id="stop3185"
         style="stop-color:#c80000;stop-opacity:1"
         offset="0" />
      <stop
         id="stop3187"
         style="stop-color:#f3604d;stop-opacity:1"
         offset="1" />
    </linearGradient>
    <linearGradient
       inkscape:collect="always"
       xlink:href="#linearGradient3183-2"
       id="linearGradient4154-4"
       gradientUnits="userSpaceOnUse"
       gradientTransform="matrix(0,-3.0000004,2.9652505,0,6.320291,80.997637)"
       x1="11"
       y1="11.015625"
       x2="19"
       y2="11.015625" />
    <linearGradient
       id="linearGradient3183-2">
      <stop
         id="stop3185-4"
         style="stop-color:#c80000;stop-opacity:1"
         offset="0" />
      <stop
         id="stop3187-9"
         style="stop-color:#f3604d;stop-opacity:1"
         offset="1" />
    </linearGradient>
    <linearGradient
       id="linearGradient3975-6">
      <stop
         style="stop-color:#ffffff;stop-opacity:1;"
         offset="0"
         id="stop3977-5" />
      <stop
         style="stop-color:#c8c8c8;stop-opacity:1;"
         offset="1"
         id="stop3979-6" />
    </linearGradient>
    <linearGradient
       inkscape:collect="always"
       xlink:href="#linearGradient3183-2-1"
       id="linearGradient4154-4-7"
       gradientUnits="userSpaceOnUse"
       gradientTransform="matrix(0,-3.0000004,2.9652505,0,6.320291,80.997637)"
       x1="11"
       y1="11.015625"
       x2="19"
       y2="11.015625" />
    <linearGradient
       id="linearGradient3183-2-1">
      <stop
         id="stop3185-4-3"
         style="stop-color:#c80000;stop-opacity:1"
         offset="0" />
      <stop
         id="stop3187-9-9"
         style="stop-color:#f3604d;stop-opacity:1"
         offset="1" />
    </linearGradient>
    <linearGradient
       id="linearGradient3183-2-1-6">
      <stop
         id="stop3185-4-3-3"
         style="stop-color:#c8c8c8;stop-opacity:1;"
         offset="0" />
      <stop
         id="stop3187-9-9-9"
         style="stop-color:#646464;stop-opacity:1;"
         offset="1" />
    </linearGradient>
    <linearGradient
       id="linearGradient3183-2-1-8">
      <stop
         id="stop3185-4-3-8"
         style="stop-color:#dcdcdc;stop-opacity:1;"
         offset="0" />
      <stop
         id="stop3187-9-9-1"
         style="stop-color:#b4b4b4;stop-opacity:1;"
         offset="1" />
    </linearGradient>
    <linearGradient
       inkscape:collect="always"
       xlink:href="#linearGradient3183-2-1-8-3"
       id="linearGradient5492-6"
       gradientUnits="userSpaceOnUse"
       gradientTransform="matrix(0,-4.5571071,4.5043208,0,344.62311,643.30603)"
       x1="11"
       y1="11.015625"
       x2="19"
       y2="11.015625" />
    <linearGradient
       id="linearGradient3183-2-1-8-3">
      <stop
         id="stop3185-4-3-8-7"
         style="stop-color:#dcdcdc;stop-opacity:1;"
         offset="0" />
      <stop
         id="stop3187-9-9-1-1"
         style="stop-color:#b4b4b4;stop-opacity:1;"
         offset="1" />
    </linearGradient>
  </defs>
  <sodipodi:namedview
     id="base"
     pagecolor="#ffffff"
     bordercolor="#666666"
     borderopacity="1.0"
     inkscape:pageopacity="0.0"
     inkscape:pageshadow="2"
     inkscape:zoom="28.677599"
     inkscape:cx="9.3256048"
     inkscape:cy="12.846769"
     inkscape:document-units="px"
     inkscape:current-layer="layer1"
     showgrid="true"
     inkscape:object-nodes="true"
     inkscape:snap-nodes="true"
     inkscape:snap-smooth-nodes="true"
     inkscape:object-paths="false"
     inkscape:snap-bbox="false"
     inkscape:snap-global="true"
     fit-margin-top="8.37"
     fit-margin-left="9.83"
     fit-margin-right="9.83"
     fit-margin-bottom="8.38"
     inkscape:window-width="1600"
     inkscape:window-height="900"
     inkscape:window-x="0"
     inkscape:window-y="0"
     inkscape:window-maximized="1"
     showguides="true"
     inkscape:guide-bbox="true"
     inkscape:document-rotation="0"
     inkscape:snap-others="false">
    <inkscape:grid
       type="xygrid"
       id="grid872" />
  </sodipodi:namedview>
  <metadata
     id="metadata7">
    <rdf:RDF>
      <cc:Work
         rdf:about="">
        <dc:format>image/svg+xml</dc:format>
        <dc:type
           rdf:resource="http://purl.org/dc/dcmitype/StillImage" />
        <dc:title />
      </cc:Work>
    </rdf:RDF>
  </metadata>
  <g
     inkscape:label="Capa 1"
     inkscape:groupmode="layer"
     id="layer1"
     transform="translate(-362.29493,-583.38026)">
    <path
       style="fill:#dfdbd3;fill-opacity:1;stroke:none;stroke-width:1"
       d="m 370.33954,586.38026 c -2.24214,0 -4.04461,1.85552 -4.04461,4.15625 v 9.6875 c 0,2.30073 1.80247,4.15625 4.04461,4.15625 h 7.91078 c 2.24214,0 4.04461,-1.85552 4.04461,-4.15625 v -9.6875 c 0,-2.30073 -1.80247,-4.15625 -4.04461,-4.15625 z m 0.95539,2 h 6 c 1.99883,0 2.99756,1 3,3 v 6 h -12 v -6 c 0,-2 1,-3 3,-3 z m -3,11.5 v -0.5 h 5 v 3 h -2.5 c -1.5,0 -2.5,-1 -2.5,-2.5 z m 7,-0.5 h 5 v 0.5 c 0,1.5 -1,2.5 -2.5,2.5 h -2.5 z"
       id="rect6873"
       sodipodi:nodetypes="ssssssssssssccssccccsccccscc" />
    <g
       transform="matrix(0.39718671,0,0,0.39718671,217.70772,366.42427)"
       id="g8124">
      <path
         style="opacity:0.1;fill:#000000;fill-opacity:1;fill-rule:evenodd;stroke:none;display:inline"
         id="path3761-2-1"
         d="m 384.88945,555.24942 c 10e-4,-1.3e-4 -0.14351,0.0476 -0.14241,0.0475 10e-4,-1.8e-4 -0.14349,2.4e-4 -0.14241,0 0.001,-2.3e-4 -0.14347,0.0478 -0.14241,0.0475 0.002,-4e-4 -0.19141,0.048 -0.18988,0.0475 0.002,-5.1e-4 -0.19137,0.0956 -0.18988,0.0949 0.002,-6.2e-4 -0.23879,0.0957 -0.23735,0.0949 0.001,-7.3e-4 -0.19126,0.0958 -0.18988,0.0949 10e-4,-8.3e-4 -0.14373,0.14334 -0.14241,0.14241 0.001,-9.3e-4 -0.19112,0.096 -0.18988,0.0949 10e-4,-0.001 -0.14358,0.14352 -0.14241,0.14241 9.1e-4,-8.3e-4 -0.0999,0.0991 -0.14241,0.14241 -0.0141,0.0144 -0.0477,0.0478 -0.0475,0.0475 l -9.11421,9.20915 c 10e-4,-0.002 -0.19118,0.239 -0.18988,0.23735 10e-4,-0.002 -0.14355,0.19165 -0.14241,0.18988 10e-4,-0.002 -0.14337,0.23922 -0.14241,0.23735 9.6e-4,-0.002 -0.14318,0.28677 -0.14241,0.28482 7.8e-4,-0.002 -0.0955,0.23936 -0.0949,0.23735 5.9e-4,-0.002 -0.0479,0.28688 -0.0475,0.28482 4e-4,-0.002 -0.0477,0.28691 -0.0475,0.28482 2e-4,-0.002 0,0.28692 0,0.28482 0,-0.002 2e-4,0.28691 0,0.28481 -2e-4,-0.002 0.0479,0.28689 0.0475,0.28482 -3.9e-4,-0.002 0.0481,0.28684 0.0475,0.28482 -5.9e-4,-0.002 0.0957,0.2393 0.0949,0.23735 -7.8e-4,-0.002 0.14337,0.28669 0.14241,0.28482 -9.6e-4,-0.002 0.14355,0.23912 0.14241,0.23735 -0.001,-0.002 0.1437,0.19153 0.14241,0.18988 -10e-4,-0.002 0.19133,0.23887 0.18988,0.23735 l 6.83566,6.9306 -6.83566,6.9306 c 10e-4,-0.002 -0.19118,0.239 -0.18988,0.23735 10e-4,-0.002 -0.14355,0.19165 -0.14241,0.18988 10e-4,-0.002 -0.14337,0.23921 -0.14241,0.23735 9.6e-4,-0.002 -0.14318,0.28677 -0.14241,0.28482 7.8e-4,-0.002 -0.0955,0.23936 -0.0949,0.23734 5.9e-4,-0.002 -0.0479,0.28689 -0.0475,0.28482 4e-4,-0.002 -0.0477,0.28691 -0.0475,0.28482 2e-4,-0.002 0,0.28692 0,0.28482 0,-0.002 2e-4,0.28691 0,0.28482 -2e-4,-0.002 0.0479,0.28688 0.0475,0.28482 -3.9e-4,-0.002 0.0481,0.28684 0.0475,0.28482 -5.9e-4,-0.002 0.0957,0.2393 0.0949,0.23735 -7.8e-4,-0.002 0.14337,0.28669 0.14241,0.28482 -9.6e-4,-0.002 0.14355,0.23912 0.14241,0.23735 -0.001,-0.002 0.1437,0.19153 0.14241,0.18988 -10e-4,-0.002 0.19133,0.23887 0.18988,0.23735 l 9.16168,9.25662 c -0.002,-0.002 0.19153,0.19129 0.18988,0.18988 -0.002,-10e-4 0.23913,0.19112 0.23735,0.18988 -0.002,-10e-4 0.23924,0.14347 0.23735,0.14241 -0.002,-10e-4 0.2868,0.14327 0.28482,0.14241 -0.002,-8.4e-4 0.28688,0.0956 0.28482,0.0949 -0.002,-6.8e-4 0.23946,0.0954 0.23735,0.0949 -0.002,-4.7e-4 0.28697,0.0477 0.28482,0.0475 -0.002,-2.7e-4 0.33445,5e-5 0.33229,0 -0.002,-5e-5 0.28697,-1.6e-4 0.28482,0 -0.002,1.6e-4 0.28695,-0.0478 0.28481,-0.0475 -0.002,3.7e-4 0.28691,-0.048 0.28482,-0.0475 -0.002,5.8e-4 0.23937,-0.0957 0.23735,-0.0949 -0.002,7.6e-4 0.28676,-0.0959 0.28482,-0.0949 -0.002,9.8e-4 0.23918,-0.14357 0.23735,-0.14241 -0.002,10e-4 0.23906,-0.19121 0.23735,-0.18988 -0.002,10e-4 0.23892,-0.19137 0.23735,-0.18988 l 6.97807,-6.9306 6.69325,6.83566 c -7.6e-4,-8.4e-4 0.0957,0.0957 0.0949,0.0949 -8.4e-4,-7.6e-4 0.14326,0.0957 0.14241,0.0949 -8.4e-4,-7.2e-4 0.0958,0.0956 0.0949,0.0949 -9.1e-4,-6.8e-4 0.14332,0.0956 0.14241,0.0949 -9.1e-4,-6.4e-4 0.0959,0.0955 0.0949,0.0949 -9.1e-4,-5.9e-4 0.14338,0.0955 0.14241,0.0949 -9.9e-4,-5.4e-4 0.14341,0.048 0.14241,0.0475 -9.9e-4,-4.9e-4 0.14344,0.0479 0.14241,0.0475 -10e-4,-4.4e-4 0.096,0.0479 0.0949,0.0475 -10e-4,-3.9e-4 0.14347,0.0478 0.14241,0.0475 -10e-4,-3.3e-4 0.14348,0.0477 0.14241,0.0475 -0.001,-2.8e-4 0.19097,0.0477 0.18988,0.0475 -10e-4,-2.3e-4 0.14351,0.0476 0.1424,0.0475 -10e-4,-1.7e-4 0.14352,1.1e-4 0.14241,0 -10e-4,-1.2e-4 0.14352,5e-5 0.14241,0 -0.001,-6e-5 0.14352,0 0.14241,0 -10e-4,0 0.14352,-6e-5 0.14241,0 -10e-4,5e-5 0.14352,-1.2e-4 0.14241,0 -0.001,1.1e-4 0.14352,-1.7e-4 0.14241,0 -0.001,1.6e-4 0.14351,-0.0477 0.14241,-0.0475 -10e-4,2.2e-4 0.19096,-0.0477 0.18988,-0.0475 -0.001,2.7e-4 0.14347,-0.0478 0.14241,-0.0475 -10e-4,3.3e-4 0.14346,-0.0479 0.14241,-0.0475 -10e-4,3.8e-4 0.096,-0.0479 0.0949,-0.0475 -0.001,4.3e-4 0.14341,-0.048 0.14241,-0.0475 -9.9e-4,4.8e-4 0.14338,-0.048 0.14241,-0.0475 -9.9e-4,5.3e-4 0.14335,-0.0955 0.14241,-0.0949 -9.1e-4,5.8e-4 0.0958,-0.0956 0.0949,-0.0949 -9.1e-4,6.3e-4 0.14329,-0.0956 0.14241,-0.0949 -9.1e-4,6.8e-4 0.0958,-0.0957 0.0949,-0.0949 -8.4e-4,7.2e-4 0.14321,-0.0957 0.14241,-0.0949 -8.4e-4,7.6e-4 0.0957,-0.0958 0.0949,-0.0949 l 9.4465,-9.54144 c -0.002,0.002 0.19121,-0.23906 0.18988,-0.23735 -0.001,0.002 0.19104,-0.23918 0.18988,-0.23735 -10e-4,0.002 0.14338,-0.23928 0.14241,-0.23735 -9.9e-4,0.002 0.0957,-0.28684 0.0949,-0.28482 -7.6e-4,0.002 0.0955,-0.23944 0.0949,-0.23735 -5.8e-4,0.002 0.0478,-0.28695 0.0475,-0.28482 -3.8e-4,0.002 0.0476,-0.28698 0.0475,-0.28482 -1.6e-4,0.002 -5e-5,-0.28698 0,-0.28482 5e-5,0.002 -2.6e-4,-0.33444 0,-0.33229 2.6e-4,0.002 -0.0479,-0.28693 -0.0475,-0.28481 4.7e-4,0.002 -0.0956,-0.23941 -0.0949,-0.23735 6.7e-4,0.002 -0.0958,-0.28681 -0.0949,-0.28482 8.3e-4,0.002 -0.14348,-0.28671 -0.14241,-0.28482 10e-4,0.002 -0.14366,-0.23913 -0.14241,-0.23735 10e-4,0.002 -0.19129,-0.23899 -0.18988,-0.23735 10e-4,0.002 -0.19144,-0.19138 -0.18988,-0.18988 l -6.69325,-6.55084 6.69325,-6.55084 c -0.002,0.002 0.19129,-0.19152 0.18988,-0.18988 -10e-4,0.002 0.19112,-0.23912 0.18988,-0.23735 -0.001,0.002 0.14347,-0.23924 0.14241,-0.23735 -10e-4,0.002 0.14327,-0.2868 0.14241,-0.28482 -8.4e-4,0.002 0.0956,-0.28687 0.0949,-0.28482 -6.8e-4,0.002 0.0954,-0.23946 0.0949,-0.23735 -4.7e-4,0.002 0.0477,-0.28697 0.0475,-0.28482 -2.6e-4,0.002 5e-5,-0.33445 0,-0.33229 -5e-5,0.002 -1.6e-4,-0.28697 0,-0.28481 1.6e-4,0.002 -0.0479,-0.28696 -0.0475,-0.28482 3.7e-4,0.002 -0.048,-0.28691 -0.0475,-0.28482 5.8e-4,0.002 -0.0957,-0.23937 -0.0949,-0.23735 7.6e-4,0.002 -0.0959,-0.28676 -0.0949,-0.28482 9.9e-4,0.002 -0.14357,-0.23918 -0.14241,-0.23735 0.001,0.002 -0.19121,-0.23906 -0.18988,-0.23735 10e-4,0.002 -0.19137,-0.23892 -0.18988,-0.23735 l -9.4465,-9.54144 c 7.6e-4,8e-4 -0.0958,-0.0957 -0.0949,-0.0949 8.3e-4,7.7e-4 -0.14326,-0.0957 -0.14241,-0.0949 8.3e-4,7.2e-4 -0.0958,-0.0956 -0.0949,-0.0949 9.1e-4,6.8e-4 -0.14332,-0.0956 -0.14241,-0.0949 9.1e-4,6.3e-4 -0.0959,-0.0955 -0.0949,-0.0949 9.1e-4,5.9e-4 -0.14338,-0.0955 -0.14241,-0.0949 9.9e-4,5.4e-4 -0.14341,-0.048 -0.14241,-0.0475 9.9e-4,4.9e-4 -0.14344,-0.0479 -0.14241,-0.0475 9.9e-4,4.4e-4 -0.096,-0.0478 -0.0949,-0.0475 0.001,3.9e-4 -0.14347,-0.0478 -0.14241,-0.0475 0.001,3.3e-4 -0.14349,-0.0477 -0.14241,-0.0475 10e-4,2.8e-4 -0.19097,-0.0477 -0.18988,-0.0475 0.001,2.2e-4 -0.14352,-0.0476 -0.14241,-0.0475 10e-4,1.7e-4 -0.14352,-1.1e-4 -0.14241,0 10e-4,1.1e-4 -0.14352,-5e-5 -0.14241,0 0.001,6e-5 -0.14352,0 -0.14241,0 10e-4,0 -0.14351,6e-5 -0.14241,0 10e-4,-5e-5 -0.14351,1.1e-4 -0.14241,0 0.001,-1.1e-4 -0.14351,1.7e-4 -0.14241,0 0.001,-1.7e-4 -0.1435,0.0477 -0.1424,0.0475 0.001,-2.2e-4 -0.19096,0.0477 -0.18988,0.0475 10e-4,-2.8e-4 -0.14348,0.0478 -0.14241,0.0475 0.001,-3.3e-4 -0.14346,0.0479 -0.14241,0.0475 10e-4,-3.8e-4 -0.096,0.0479 -0.0949,0.0475 9.8e-4,-4.4e-4 -0.14342,0.048 -0.14241,0.0475 9.8e-4,-4.9e-4 -0.14338,0.048 -0.14241,0.0475 9.9e-4,-5.4e-4 -0.14335,0.0955 -0.14241,0.0949 9.1e-4,-5.9e-4 -0.0958,0.0956 -0.0949,0.0949 9.1e-4,-6.3e-4 -0.14329,0.0956 -0.14241,0.0949 9.1e-4,-6.8e-4 -0.0958,0.0957 -0.0949,0.0949 8.3e-4,-7.2e-4 -0.14322,0.0957 -0.14241,0.0949 8.4e-4,-7.7e-4 -0.0957,0.0957 -0.0949,0.0949 l -6.69325,6.83566 -6.9306,-6.88313 c 2.6e-4,2.6e-4 -0.0315,-0.0322 -0.0475,-0.0475 -0.0319,-0.0305 -0.0955,-0.0954 -0.0949,-0.0949 8.4e-4,7.5e-4 -0.0958,-0.0956 -0.0949,-0.0949 8.4e-4,7e-4 -0.0958,-0.0956 -0.0949,-0.0949 9.1e-4,6.6e-4 -0.14333,-0.0481 -0.14241,-0.0475 9.1e-4,6.2e-4 -0.14336,-0.0955 -0.14241,-0.0949 9.9e-4,5.7e-4 -0.0959,-0.0955 -0.0949,-0.0949 9.9e-4,5.2e-4 -0.14341,-0.0479 -0.14241,-0.0475 9.9e-4,4.7e-4 -0.14344,-0.0479 -0.14241,-0.0475 0.001,4.2e-4 -0.14345,-0.0478 -0.14241,-0.0475 10e-4,3.7e-4 -0.14347,-0.0478 -0.14241,-0.0475 10e-4,3.2e-4 -0.14348,-0.0477 -0.14241,-0.0475 0.001,2.6e-4 -0.1435,-0.0477 -0.14241,-0.0475 10e-4,2.1e-4 -0.1435,-1.5e-4 -0.1424,0 0.001,1.5e-4 -0.14352,-0.0476 -0.14241,-0.0475 10e-4,10e-5 -0.14352,-4e-5 -0.14241,0 10e-4,4e-5 -0.14352,2e-5 -0.14241,0 a 1.5138334,1.5138334 0 0 0 -0.0949,0 c 0.001,-7e-5 -0.14351,1.3e-4 -0.14241,0 z"
         inkscape:connector-curvature="0" />
      <path
         style="opacity:0.15;fill:#000000;fill-opacity:1;fill-rule:evenodd;stroke:none;display:inline"
         id="path3757-3-0"
         d="m 384.84198,556.81593 a 1.4473112,1.4473112 0 0 0 -0.71205,0.42723 l -9.16168,9.25662 a 1.4473112,1.4473112 0 0 0 0,1.99373 l 7.87999,7.97494 -7.87999,7.97494 a 1.4473112,1.4473112 0 0 0 0,1.99373 l 9.16168,9.25662 a 1.4473112,1.4473112 0 0 0 2.0412,0.0475 l 8.02241,-7.97493 7.78506,7.92746 a 1.4473112,1.4473112 0 0 0 2.08867,0 l 9.4465,-9.54144 a 1.4473112,1.4473112 0 0 0 -0.0475,-2.0412 l -7.83252,-7.64265 7.83252,-7.64265 a 1.4473112,1.4473112 0 0 0 0.0475,-2.0412 l -9.4465,-9.54144 a 1.4473112,1.4473112 0 0 0 -2.08867,0 l -7.78506,7.92746 -8.02241,-7.97493 a 1.4473112,1.4473112 0 0 0 -1.32915,-0.37976 z"
         inkscape:connector-curvature="0" />
      <path
         style="opacity:0.3;fill:#000000;fill-opacity:1;fill-rule:evenodd;stroke:none;display:inline"
         id="path3751-1-4"
         d="m 376.01259,585.44026 9.1494,9.25661 9.00864,-8.9718 8.86788,8.9718 9.43093,-9.54143 -8.86789,-8.68699 8.86789,-8.68698 -9.43093,-9.54145 -8.86788,8.97181 -9.00864,-8.97181 -9.1494,9.25663 8.86788,8.9718 -8.86788,8.97181 z"
         inkscape:connector-curvature="0" />
      <path
         style="fill:url(#linearGradient5492-6);fill-opacity:1;fill-rule:evenodd;stroke:none;display:inline"
         id="path7165-5-9"
         d="m 376.01259,583.92122 9.1494,9.25662 9.00864,-8.9718 8.86788,8.9718 9.43093,-9.54144 -8.86789,-8.68698 8.86789,-8.68699 -9.43093,-9.54144 -8.86788,8.9718 -9.00864,-8.9718 -9.1494,9.25662 8.86788,8.97181 -8.86788,8.9718 z"
         inkscape:connector-curvature="0" />
      <path
         style="opacity:0.2;fill:#ffffff;fill-opacity:1;fill-rule:evenodd;stroke:none;display:inline"
         id="path2970-7-2"
         d="m 385.17427,556.72099 -9.16168,9.25662 1.51903,1.51904 7.64265,-7.73759 9.01927,8.9718 8.82939,-8.9718 7.92747,7.97493 1.51904,-1.47156 -9.44651,-9.54144 -8.82939,8.9718 -9.01927,-8.9718 z m -0.29595,18.19168 -8.86573,9.00855 1.51903,1.51903 7.35783,-7.45277 -0.0111,-3.07481 z m 18.74891,0.0718 -0.0347,3.003 7.35783,7.21542 1.51903,-1.5665 -8.8422,-8.65192 z"
         inkscape:connector-curvature="0" />
    </g>
  </g>
</svg>
