<?xml version="1.0" encoding="UTF-8" standalone="no"?>
<!-- Created with Inkscape (http://www.inkscape.org/) -->

<svg
   xmlns:dc="http://purl.org/dc/elements/1.1/"
   xmlns:cc="http://creativecommons.org/ns#"
   xmlns:rdf="http://www.w3.org/1999/02/22-rdf-syntax-ns#"
   xmlns:svg="http://www.w3.org/2000/svg"
   xmlns="http://www.w3.org/2000/svg"
   xmlns:xlink="http://www.w3.org/1999/xlink"
   xmlns:sodipodi="http://sodipodi.sourceforge.net/DTD/sodipodi-0.dtd"
   xmlns:inkscape="http://www.inkscape.org/namespaces/inkscape"
   width="48"
   height="48"
   id="svg2"
   version="1.1"
   inkscape:version="0.48.3.1 r9886"
   sodipodi:docname="googleplus.svg">
  <defs
     id="defs4">
    <linearGradient
       inkscape:collect="always"
       id="linearGradient5431">
      <stop
         style="stop-color:#cb3000;stop-opacity:1;"
         offset="0"
         id="stop5433" />
      <stop
         style="stop-color:#cb3000;stop-opacity:0;"
         offset="1"
         id="stop5435" />
    </linearGradient>
    <linearGradient
       id="linearGradient4698">
      <stop
         style="stop-color:#c83200;stop-opacity:1;"
         offset="0"
         id="stop4700" />
      <stop
         style="stop-color:#c83200;stop-opacity:0;"
         offset="1"
         id="stop4702" />
    </linearGradient>
    <linearGradient
       inkscape:collect="always"
       id="linearGradient3781">
      <stop
         style="stop-color:#0000ff;stop-opacity:1;"
         offset="0"
         id="stop3783" />
      <stop
         style="stop-color:#0000ff;stop-opacity:0;"
         offset="1"
         id="stop3785" />
    </linearGradient>
    <linearGradient
       inkscape:collect="always"
       xlink:href="#linearGradient3781"
       id="linearGradient3787"
       x1="22.435284"
       y1="1008.538"
       x2="23.544411"
       y2="1063.3387"
       gradientUnits="userSpaceOnUse"
       gradientTransform="translate(0.50507628,-2.1465739)" />
    <filter
       inkscape:collect="always"
       id="filter5427">
      <feGaussianBlur
         inkscape:collect="always"
         stdDeviation="0.83950025"
         id="feGaussianBlur5429" />
    </filter>
    <radialGradient
       inkscape:collect="always"
       xlink:href="#linearGradient5431"
       id="radialGradient5437"
       cx="24.000002"
       cy="1028.2822"
       fx="24.000002"
       fy="1028.2822"
       r="17.500001"
       gradientTransform="matrix(5.8371535,-0.04205092,0.04837255,6.7146854,-165.83233,-5875.3003)"
       gradientUnits="userSpaceOnUse" />
  </defs>
  <sodipodi:namedview
     id="base"
     pagecolor="#ffffff"
     bordercolor="#666666"
     borderopacity="1.0"
     inkscape:pageopacity="0.0"
     inkscape:pageshadow="2"
     inkscape:zoom="2.8"
     inkscape:cx="11.525993"
     inkscape:cy="-39.12982"
     inkscape:document-units="px"
     inkscape:current-layer="layer1"
     showgrid="false"
     inkscape:window-width="1280"
     inkscape:window-height="1000"
     inkscape:window-x="0"
     inkscape:window-y="24"
     inkscape:window-maximized="1" />
  <metadata
     id="metadata7">
    <rdf:RDF>
      <cc:Work
         rdf:about="">
        <dc:format>image/svg+xml</dc:format>
        <dc:type
           rdf:resource="http://purl.org/dc/dcmitype/StillImage" />
        <dc:title></dc:title>
      </cc:Work>
    </rdf:RDF>
  </metadata>
  <g
     inkscape:label="Capa 1"
     inkscape:groupmode="layer"
     id="layer1"
     transform="translate(0,-1004.3622)">
    <path
       inkscape:connector-curvature="0"
       id="path5421"
       d="m 23.945312,1012.206 c -1.229578,-0.013 -2.918291,0.01 -4.8125,0.027 -6.635195,0.076 -6.736852,0.071 -8.339843,0.6016 -0.8905402,0.2946 -2.1283415,0.8986 -2.761719,1.3398 -0.8389047,0.5843 -1.2398152,0.8129 -1.3945313,0.7383 C 6.5529244,1015.3448 6.5,1015.7682 6.5,1016.2255 l 0,11.7578 0.1640625,0.2188 c 0.00382,-0.01 -0.00391,-0.055 0,-0.055 0.096556,0 0.6218975,0.2542 1.1484375,0.5468 1.2017863,0.6679 2.834703,1.0664 4.457031,1.0664 0.690463,0 1.260438,0.054 1.257813,0.1368 -0.0026,0.082 -0.08911,0.5183 -0.191406,0.957 -0.233862,1.003 0.03715,2.2473 0.710937,3.3086 l 0.492188,0.793 -0.4375,0.164 c -0.251073,0.093 -1.166743,0.2256 -2.023438,0.3008 -0.856704,0.075 -2.2615425,0.3202 -3.1171875,0.5469 -0.8556362,0.2266 -1.7475325,0.4635 -1.9960938,0.5195 L 6.5,1036.5966 l 0,0.9023 c 0,0.6846 0.090076,1.3457 0.2734375,1.9688 0.1180199,-0.3225 0.4302985,-0.6072 0.984375,-0.9844 0.579985,-0.3948 1.4476,-0.8676 1.9414063,-1.0391 1.2666592,-0.4397 4.0529822,-0.9023 5.4687502,-0.9023 1.133326,0 1.295306,0.069 2.84375,1.1484 3.224445,2.2481 4.566406,3.8146 4.566406,5.4141 0,0.4372 0.09649,0.8544 0.21875,0.9297 0.154971,0.095 0.135301,0.2084 -0.05469,0.3281 l 2.84375,0 c -0.183855,-0.066 -0.155872,-0.1079 0.109375,-0.3008 0.515594,-0.3748 0.647562,-2.9083 0.21875,-4.375 -0.457791,-1.5657 -1.593558,-2.8371 -4.675781,-5.332 -3.015119,-2.4406 -3.509546,-3.1363 -3.144531,-4.3477 0.154009,-0.511 0.633421,-1.1422 1.3125,-1.7773 2.42788,-2.2704 3.034246,-2.9582 3.582031,-4.1289 1.327471,-2.8371 0.807336,-6.1919 -1.3125,-8.5859 -0.28014,-0.3164 -0.469525,-0.6701 -0.410156,-0.7657 0.05933,-0.096 0.625345,-0.164 1.230469,-0.164 1.024607,0 1.167775,-0.074 2.378906,-1.0391 0.764417,-0.6091 1.226662,-1.1255 1.121094,-1.2305 -0.05076,-0.051 -0.821203,-0.096 -2.050782,-0.1093 z m 10.007813,0 -1.449219,0.082 -0.08203,2.9805 -0.109375,3.0078 -2.898438,0.055 c -2.014617,0.038 -2.954384,0.1315 -3.0625,0.3007 -0.202177,0.3164 -0.202177,2.1719 0,2.4883 0.108116,0.1692 1.047883,0.2623 3.0625,0.3008 l 2.898438,0.055 0.109375,2.9805 0.08203,3.0078 1.449219,0.055 c 1.743945,0.071 1.652271,0.28 1.722656,-3.4454 l 0.05469,-2.5976 2.898437,0 2.871094,0 0,-3.1992 -2.871094,0 -2.898437,0 -0.05469,-2.5977 c -0.0616,-3.2595 0.0018,-3.5068 -1.148437,-3.4726 -0.164282,0.01 -0.35623,-0.01 -0.574219,0 z m -20.945312,1.6132 c 3.173563,-0.095 6.112688,4.1038 6.207031,8.9688 0.02555,1.3191 -0.04531,1.6503 -0.574219,2.6797 -0.462464,0.9001 -0.839729,1.3186 -1.585938,1.7773 -1.276038,0.7845 -3.179058,0.9214 -4.457031,0.3281 -2.9971897,-1.3915 -5.0716398,-6.749 -3.9921872,-10.3632 0.5515824,-1.8467 2.1295312,-3.131 4.1015622,-3.3633 0.102752,-0.012 0.198415,-0.027 0.300782,-0.027 z"
       style="fill:#000000;fill-opacity:1;stroke:none;filter:url(#filter5427)" />
    <path
       style="fill:url(#radialGradient5437);fill-opacity:1;stroke:none"
       d="m 23.945312,1012.206 c -1.229578,-0.013 -2.918291,0.01 -4.8125,0.027 -6.635195,0.076 -6.736852,0.071 -8.339843,0.6016 -0.8905402,0.2946 -2.1283415,0.8986 -2.761719,1.3398 -0.8389047,0.5843 -1.2398152,0.8129 -1.3945313,0.7383 C 6.5529244,1015.3448 6.5,1015.7682 6.5,1016.2255 l 0,11.7578 0.1640625,0.2188 c 0.00382,-0.01 -0.00391,-0.055 0,-0.055 0.096556,0 0.6218975,0.2542 1.1484375,0.5468 1.2017863,0.6679 2.834703,1.0664 4.457031,1.0664 0.690463,0 1.260438,0.054 1.257813,0.1368 -0.0026,0.082 -0.08911,0.5183 -0.191406,0.957 -0.233862,1.003 0.03715,2.2473 0.710937,3.3086 l 0.492188,0.793 -0.4375,0.164 c -0.251073,0.093 -1.166743,0.2256 -2.023438,0.3008 -0.856704,0.075 -2.2615425,0.3202 -3.1171875,0.5469 -0.8556362,0.2266 -1.7475325,0.4635 -1.9960938,0.5195 L 6.5,1036.5966 l 0,0.9023 c 0,0.6846 0.090076,1.3457 0.2734375,1.9688 0.1180199,-0.3225 0.4302985,-0.6072 0.984375,-0.9844 0.579985,-0.3948 1.4476,-0.8676 1.9414063,-1.0391 1.2666592,-0.4397 4.0529822,-0.9023 5.4687502,-0.9023 1.133326,0 1.295306,0.069 2.84375,1.1484 3.224445,2.2481 4.566406,3.8146 4.566406,5.4141 0,0.4372 0.09649,0.8544 0.21875,0.9297 0.154971,0.095 0.135301,0.2084 -0.05469,0.3281 l 2.84375,0 c -0.183855,-0.066 -0.155872,-0.1079 0.109375,-0.3008 0.515594,-0.3748 0.647562,-2.9083 0.21875,-4.375 -0.457791,-1.5657 -1.593558,-2.8371 -4.675781,-5.332 -3.015119,-2.4406 -3.509546,-3.1363 -3.144531,-4.3477 0.154009,-0.511 0.633421,-1.1422 1.3125,-1.7773 2.42788,-2.2704 3.034246,-2.9582 3.582031,-4.1289 1.327471,-2.8371 0.807336,-6.1919 -1.3125,-8.5859 -0.28014,-0.3164 -0.469525,-0.6701 -0.410156,-0.7657 0.05933,-0.096 0.625345,-0.164 1.230469,-0.164 1.024607,0 1.167775,-0.074 2.378906,-1.0391 0.764417,-0.6091 1.226662,-1.1255 1.121094,-1.2305 -0.05076,-0.051 -0.821203,-0.096 -2.050782,-0.1093 z m 10.007813,0 -1.449219,0.082 -0.08203,2.9805 -0.109375,3.0078 -2.898438,0.055 c -2.014617,0.038 -2.954384,0.1315 -3.0625,0.3007 -0.202177,0.3164 -0.202177,2.1719 0,2.4883 0.108116,0.1692 1.047883,0.2623 3.0625,0.3008 l 2.898438,0.055 0.109375,2.9805 0.08203,3.0078 1.449219,0.055 c 1.743945,0.071 1.652271,0.28 1.722656,-3.4454 l 0.05469,-2.5976 2.898437,0 2.871094,0 0,-3.1992 -2.871094,0 -2.898437,0 -0.05469,-2.5977 c -0.0616,-3.2595 0.0018,-3.5068 -1.148437,-3.4726 -0.164282,0.01 -0.35623,-0.01 -0.574219,0 z m -20.945312,1.6132 c 3.173563,-0.095 6.112688,4.1038 6.207031,8.9688 0.02555,1.3191 -0.04531,1.6503 -0.574219,2.6797 -0.462464,0.9001 -0.839729,1.3186 -1.585938,1.7773 -1.276038,0.7845 -3.179058,0.9214 -4.457031,0.3281 -2.9971897,-1.3915 -5.0716398,-6.749 -3.9921872,-10.3632 0.5515824,-1.8467 2.1295312,-3.131 4.1015622,-3.3633 0.102752,-0.012 0.198415,-0.027 0.300782,-0.027 z"
       id="rect5291"
       inkscape:connector-curvature="0" />
  </g>
</svg>
